<?xml version="1.0" encoding="UTF-8" standalone="no"?>
<svg width="200px" height="120px" viewBox="0 0 200 120" version="1.1" xmlns="http://www.w3.org/2000/svg" xmlns:xlink="http://www.w3.org/1999/xlink">
    <!-- Generator: Sketch 3.8.3 (29802) - http://www.bohemiancoding.com/sketch -->
    <title>001-logo</title>
    <desc>Created with Sketch.</desc>
    <defs></defs>
    <g id="001" stroke="none" stroke-width="1" fill="none" fill-rule="evenodd">
        <g id="001-logo" fill="#D2DCE5">
            <path d="M39.8531351,65.7927546 L37.4810931,56.8128814 C34.1771775,58.5071971 30.6191145,58.9307761 27.5693463,58.9307761 C22.0628203,58.9307761 20.4532204,56.0504394 20.4532204,49.103745 C20.4532204,37.6671141 24.0112833,31.9911565 30.7885461,31.9911565 C33.4147354,31.9911565 36.6339353,32.4147354 39.4295562,33.9396196 L43.7500612,25.1291779 C40.1919982,22.8418518 35.7020616,22.0794097 31.3815566,22.0794097 C17.9117468,22.0794097 8,28.6025251 8,50.1203345 C8,62.488839 14.5231154,68.8425229 26.0444622,68.8425229 C31.1274092,68.8425229 35.6173458,68.0800808 39.8531351,65.7927546 L39.8531351,65.7927546 Z M60.8626497,67.8259335 C60.4390708,65.4538915 60.2696392,62.8277022 60.2696392,60.2862286 C60.2696392,57.9141867 60.4390708,55.5421447 60.6932181,53.3395343 L66.3691757,7 L53.661808,9.2026104 L48.4941451,51.1369239 C48.2399978,53.3395343 48.0705662,55.6268605 48.0705662,57.9141867 C48.0705662,61.3875338 48.4094293,64.7761652 49.1718714,67.8259335 L60.8626497,67.8259335 Z M106.524458,64.5220179 L103.559405,55.8810078 C99.5777633,57.7447551 95.5961215,58.7613445 91.6991954,58.7613445 C85.1760799,58.7613445 83.1429011,56.3893025 83.0581853,51.3063554 L110.336668,48.5107345 C110.590815,46.0539768 110.675531,43.6819348 110.675531,41.4793244 C110.675531,30.0426935 107.032752,22.0794097 93.9865215,22.0794097 C77.7210909,22.0794097 70.6049649,31.5675776 70.6049649,50.1203345 C70.6049649,61.9805443 76.7045015,68.8425229 89.3271534,68.8425229 C95.765553,68.8425229 101.526226,67.6565019 106.524458,64.5220179 L106.524458,64.5220179 Z M83.3123327,43.5125032 C84.1594905,34.8714932 87.7175535,31.9911565 92.7157848,31.9911565 C97.4598687,31.9911565 99.0694686,35.2950721 99.0694686,39.3614298 C99.0694686,39.9544403 99.0694686,40.5474508 98.9847529,41.1404613 L83.3123327,43.5125032 Z M152.69456,64.5220179 L149.729508,55.8810078 C145.747866,57.7447551 141.766224,58.7613445 137.869298,58.7613445 C131.346183,58.7613445 129.313004,56.3893025 129.228288,51.3063554 L156.506771,48.5107345 C156.760918,46.0539768 156.845634,43.6819348 156.845634,41.4793244 C156.845634,30.0426935 153.202855,22.0794097 140.156624,22.0794097 C123.891194,22.0794097 116.775068,31.5675776 116.775068,50.1203345 C116.775068,61.9805443 122.874604,68.8425229 135.497256,68.8425229 C141.935656,68.8425229 147.696329,67.6565019 152.69456,64.5220179 L152.69456,64.5220179 Z M129.482435,43.5125032 C130.329593,34.8714932 133.887656,31.9911565 138.885887,31.9911565 C143.629971,31.9911565 145.239571,35.2950721 145.239571,39.3614298 C145.239571,39.9544403 145.239571,40.5474508 145.154856,41.1404613 L129.482435,43.5125032 Z M174.635949,67.8259335 L177.855148,41.5640402 C181.074348,36.14223 185.564285,35.0409248 191.917969,34.956209 L191.49439,22.0794097 C184.717127,22.8418518 180.311906,25.89162 177.601001,30.0426935 C177.092706,27.4165041 176.499696,24.6208832 175.737254,22.4182728 L165.910223,24.1973043 C166.16437,26.2304831 166.249086,28.1789462 166.249086,30.212125 C166.249086,35.0409248 165.656075,39.7850087 165.147781,43.8513664 L162.182728,67.8259335 L174.635949,67.8259335 Z" id="cleer"></path>
            <path d="M21.8531532,109.824555 L21.5227617,108.960454 C20.6078312,109.443334 19.5404123,109.595822 18.4475787,109.595822 C16.3381557,109.595822 15.0165894,108.3505 15.0165894,105.275317 C15.0165894,99.2011954 17.4055745,97.8542145 19.9724628,97.8542145 C20.9890522,97.8542145 21.9548122,97.9812881 22.8951574,98.4641681 L23.3272079,97.6254818 C22.2852038,97.0663577 21.1923701,96.939284 19.9978776,96.939284 C16.8464504,96.939284 14,98.7945597 14,105.275317 C14,108.960454 15.8552757,110.510753 18.320505,110.510753 C19.6166565,110.510753 20.8111491,110.383679 21.8531532,109.824555 L21.8531532,109.824555 Z M29.4521591,110.510753 C33.6201758,110.510753 35.7804283,108.096353 35.7804283,102.174719 C35.7804283,98.8453891 34.3317883,96.939284 31.0278727,96.939284 C26.8598561,96.939284 24.6996036,99.3536839 24.6996036,105.275317 C24.6996036,108.604648 26.1482435,110.510753 29.4521591,110.510753 L29.4521591,110.510753 Z M29.5029886,109.595822 C26.5548793,109.595822 25.716193,107.740547 25.716193,105.275317 C25.716193,100.72608 26.8852709,97.8542145 30.9770433,97.8542145 C33.9251526,97.8542145 34.7638388,99.7094902 34.7638388,102.174719 C34.7638388,106.723957 33.594761,109.595822 29.5029886,109.595822 L29.5029886,109.595822 Z M55.9343135,110.205776 L56.747585,103.5217 C56.8238292,102.937162 56.8746587,102.327208 56.8746587,101.69184 C56.8746587,99.3282691 56.1884608,96.939284 53.3420105,96.939284 C50.9530253,96.939284 49.4027265,97.9304587 48.3353076,99.9382228 C48.004916,98.286265 47.0645708,96.939284 44.9551478,96.939284 C42.6424068,96.939284 41.3208406,97.9304587 40.3296659,99.5824165 C40.3550806,99.2520249 40.3550806,98.9978776 40.3550806,98.6929007 C40.3550806,98.1591913 40.3296659,97.6508966 40.2788364,97.1934313 L39.363906,97.2950903 C39.3893207,97.7779703 39.4147354,98.2608502 39.4147354,98.7437302 C39.4147354,99.3790986 39.3893207,100.014467 39.3130765,100.624421 L38.1439987,110.205776 L39.1605881,110.205776 L40.2534217,101.132715 C41.3970848,99.0995365 42.5661626,97.8542145 44.7010004,97.8542145 C46.6325203,97.8542145 47.5728655,99.4299281 47.5728655,101.310618 C47.5728655,101.513936 47.5728655,101.742669 47.5474508,101.971402 L46.5308614,110.205776 L47.5474508,110.205776 L48.6656991,101.107301 C49.8093622,99.0741218 50.9530253,97.8542145 53.0878631,97.8542145 C55.2989451,97.8542145 55.8580693,99.6078312 55.8580693,101.717254 C55.8580693,102.378037 55.7818251,103.08965 55.7055808,103.775848 L54.917724,110.205776 L55.9343135,110.205776 Z M77.2318618,110.205776 L78.0451333,103.5217 C78.1213775,102.937162 78.172207,102.327208 78.172207,101.69184 C78.172207,99.3282691 77.4860091,96.939284 74.6395587,96.939284 C72.2505736,96.939284 70.7002748,97.9304587 69.6328559,99.9382228 C69.3024643,98.286265 68.3621191,96.939284 66.2526961,96.939284 C63.9399551,96.939284 62.6183889,97.9304587 61.6272142,99.5824165 C61.6526289,99.2520249 61.6526289,98.9978776 61.6526289,98.6929007 C61.6526289,98.1591913 61.6272142,97.6508966 61.5763847,97.1934313 L60.6614543,97.2950903 C60.686869,97.7779703 60.7122837,98.2608502 60.7122837,98.7437302 C60.7122837,99.3790986 60.686869,100.014467 60.6106248,100.624421 L59.441547,110.205776 L60.4581364,110.205776 L61.55097,101.132715 C62.6946331,99.0995365 63.8637109,97.8542145 65.9985487,97.8542145 C67.9300686,97.8542145 68.8704138,99.4299281 68.8704138,101.310618 C68.8704138,101.513936 68.8704138,101.742669 68.8449991,101.971402 L67.8284096,110.205776 L68.8449991,110.205776 L69.9632474,101.107301 C71.1069105,99.0741218 72.2505736,97.8542145 74.3854114,97.8542145 C76.5964934,97.8542145 77.1556176,99.6078312 77.1556176,101.717254 C77.1556176,102.378037 77.0793733,103.08965 77.0031291,103.775848 L76.2152723,110.205776 L77.2318618,110.205776 Z M89.5834232,107.86762 C89.5580084,108.198012 89.5580084,108.452159 89.5580084,108.757136 C89.5580084,109.290845 89.5834232,109.79914 89.6342526,110.256605 L90.5491831,110.154946 C90.5237684,109.672066 90.4983537,109.189186 90.4983537,108.706306 C90.4983537,108.070938 90.5237684,107.43557 90.6000126,106.825616 L91.7690904,97.2442608 L90.7270863,97.4475787 L89.6596674,106.317321 C88.4651748,108.3505 87.2452675,109.595822 85.0341855,109.595822 C82.7722741,109.595822 82.1877352,107.816791 82.1877352,105.707368 C82.1877352,105.046585 82.2639794,104.360387 82.3402236,103.674189 L83.1280804,97.2442608 L82.0860762,97.4475787 L81.2982194,103.928336 C81.2219752,104.512875 81.1711457,105.122829 81.1711457,105.732782 C81.1711457,108.096353 81.8827583,110.510753 84.8054529,110.510753 C87.194438,110.510753 88.5668338,109.519578 89.5834232,107.86762 L89.5834232,107.86762 Z M103.561528,110.205776 L104.374799,103.5217 C104.451043,102.937162 104.501873,102.327208 104.501873,101.717254 C104.501873,99.3536839 103.79026,96.939284 100.867566,96.939284 C98.4785806,96.939284 97.1061849,97.9304587 96.0895954,99.5824165 C96.1150102,99.2520249 96.1150102,98.9978776 96.1150102,98.6929007 C96.1150102,98.1591913 96.0895954,97.6508966 96.038766,97.1934313 L95.1238355,97.2950903 C95.1492502,97.7779703 95.174665,98.2608502 95.174665,98.7437302 C95.174665,99.3790986 95.1492502,100.014467 95.073006,100.624421 L93.9039282,110.205776 L94.9205176,110.205776 L96.0133512,101.132715 C97.2078438,99.0995365 98.4277511,97.8542145 100.638833,97.8542145 C102.900745,97.8542145 103.485283,99.6332459 103.485283,101.742669 C103.485283,102.403452 103.409039,103.08965 103.332795,103.775848 L102.544938,110.205776 L103.561528,110.205776 Z M110.271018,93.6607831 C110.271018,93.2541474 110.01687,93 109.58482,93 C109.076525,93 108.720719,93.2287326 108.720719,93.8132715 C108.720719,94.1944926 108.974866,94.4232252 109.406917,94.4232252 C109.889797,94.4232252 110.271018,94.2199073 110.271018,93.6607831 L110.271018,93.6607831 Z M108.644475,110.205776 C108.466572,109.417919 108.390327,108.553818 108.390327,107.664302 C108.390327,107.054349 108.441157,106.41898 108.517401,105.758197 L109.559405,97.2442608 L108.517401,97.4475787 L107.500812,105.707368 C107.424567,106.266492 107.399153,106.90186 107.399153,107.511814 C107.399153,108.426744 107.475397,109.341675 107.6533,110.205776 L108.644475,110.205776 Z M119.979447,109.824555 L119.649055,108.960454 C118.734125,109.443334 117.666706,109.595822 116.573872,109.595822 C114.464449,109.595822 113.142883,108.3505 113.142883,105.275317 C113.142883,99.2011954 115.531868,97.8542145 118.098756,97.8542145 C119.115346,97.8542145 120.081106,97.9812881 121.021451,98.4641681 L121.453501,97.6254818 C120.411497,97.0663577 119.318664,96.939284 118.124171,96.939284 C114.972744,96.939284 112.126294,98.7945597 112.126294,105.275317 C112.126294,108.960454 113.981569,110.510753 116.446799,110.510753 C117.74295,110.510753 118.937443,110.383679 119.979447,109.824555 L119.979447,109.824555 Z M131.568566,106.317321 C130.399488,108.299671 129.179581,109.595822 126.993914,109.595822 C124.630343,109.595822 123.867901,107.791376 123.867901,105.275317 C123.867901,98.2608502 126.993914,97.8542145 128.976263,97.8542145 C130.348659,97.8542145 131.619396,98.0321176 132.508911,98.5149976 L131.568566,106.317321 Z M132.458082,110.154946 C132.432667,109.672066 132.407252,109.189186 132.407252,108.706306 C132.407252,108.070938 132.432667,107.43557 132.508911,106.825616 L133.601745,97.8796292 C132.203934,97.1934313 130.602806,96.939284 128.900019,96.939284 C124.02039,96.939284 122.851312,100.954812 122.851312,105.275317 C122.851312,108.223427 123.994975,110.510753 126.714352,110.510753 C129.103337,110.510753 130.475732,109.519578 131.492322,107.86762 C131.466907,108.198012 131.466907,108.452159 131.466907,108.757136 C131.466907,109.290845 131.492322,109.79914 131.543151,110.256605 L132.458082,110.154946 Z M139.421719,109.900799 C138.659277,108.909624 138.430545,107.994694 138.430545,106.95269 C138.430545,106.266492 138.532204,105.50405 138.633863,104.639949 L139.421719,98.184606 L142.242755,98.184606 L142.547732,97.2442608 L139.548793,97.2442608 L140.057088,93 L139.015084,93.2033179 L138.532204,97.2442608 L136.168633,97.2442608 L136.04156,98.184606 L138.40513,98.184606 L137.668103,104.207898 C137.541029,105.173658 137.43937,106.063174 137.43937,106.90186 C137.43937,108.198012 137.718932,109.341675 138.633863,110.510753 L139.421719,109.900799 Z M146.791993,93.6607831 C146.791993,93.2541474 146.537845,93 146.105795,93 C145.5975,93 145.241694,93.2287326 145.241694,93.8132715 C145.241694,94.1944926 145.495841,94.4232252 145.927892,94.4232252 C146.410772,94.4232252 146.791993,94.2199073 146.791993,93.6607831 L146.791993,93.6607831 Z M145.16545,110.205776 C144.987546,109.417919 144.911302,108.553818 144.911302,107.664302 C144.911302,107.054349 144.962132,106.41898 145.038376,105.758197 L146.08038,97.2442608 L145.038376,97.4475787 L144.021786,105.707368 C143.945542,106.266492 143.920128,106.90186 143.920128,107.511814 C143.920128,108.426744 143.996372,109.341675 144.174275,110.205776 L145.16545,110.205776 Z M153.399824,110.510753 C157.56784,110.510753 159.728093,108.096353 159.728093,102.174719 C159.728093,98.8453891 158.279453,96.939284 154.975537,96.939284 C150.807521,96.939284 148.647268,99.3536839 148.647268,105.275317 C148.647268,108.604648 150.095908,110.510753 153.399824,110.510753 L153.399824,110.510753 Z M153.450653,109.595822 C150.502544,109.595822 149.663858,107.740547 149.663858,105.275317 C149.663858,100.72608 150.832936,97.8542145 154.924708,97.8542145 C157.872817,97.8542145 158.711504,99.7094902 158.711504,102.174719 C158.711504,106.723957 157.542426,109.595822 153.450653,109.595822 L153.450653,109.595822 Z M171.749263,110.205776 L172.562534,103.5217 C172.638779,102.937162 172.689608,102.327208 172.689608,101.717254 C172.689608,99.3536839 171.977995,96.939284 169.055301,96.939284 C166.666316,96.939284 165.29392,97.9304587 164.277331,99.5824165 C164.302745,99.2520249 164.302745,98.9978776 164.302745,98.6929007 C164.302745,98.1591913 164.277331,97.6508966 164.226501,97.1934313 L163.311571,97.2950903 C163.336985,97.7779703 163.3624,98.2608502 163.3624,98.7437302 C163.3624,99.3790986 163.336985,100.014467 163.260741,100.624421 L162.091663,110.205776 L163.108253,110.205776 L164.201086,101.132715 C165.395579,99.0995365 166.615486,97.8542145 168.826568,97.8542145 C171.08848,97.8542145 171.673019,99.6332459 171.673019,101.742669 C171.673019,102.403452 171.596774,103.08965 171.52053,103.775848 L170.732673,110.205776 L171.749263,110.205776 Z M175.129423,108.452159 L174.595713,109.265431 C175.815621,110.129532 177.391334,110.510753 179.043292,110.510753 C181.305203,110.510753 183.719603,109.84997 183.719603,106.749372 C183.719603,104.665364 182.118475,103.953751 180.034467,103.267553 C178.255435,102.683014 177.035528,102.022231 177.035528,100.548176 C177.035528,98.3625092 178.7129,97.8542145 180.441102,97.8542145 C181.559351,97.8542145 182.601355,98.0829471 183.490871,98.5658271 L183.922921,97.7271408 C182.880917,97.1426019 181.711839,96.939284 180.517347,96.939284 C178.306265,96.939284 176.044353,97.7017261 176.044353,100.573591 C176.044353,102.987991 178.102947,103.674189 179.704075,104.233313 C181.635595,104.894096 182.728429,105.427806 182.728429,106.774787 C182.728429,109.163772 180.796909,109.595822 179.119536,109.595822 C177.696311,109.595822 176.196842,109.189186 175.129423,108.452159 L175.129423,108.452159 Z" id="communications"></path>
        </g>
    </g>
</svg>