<?xml version="1.0" encoding="UTF-8" standalone="no"?>
<svg width="200px" height="200px" viewBox="0 0 200 200" version="1.1" xmlns="http://www.w3.org/2000/svg" xmlns:xlink="http://www.w3.org/1999/xlink">
    <!-- Generator: Sketch 3.8.3 (29802) - http://www.bohemiancoding.com/sketch -->
    <title>002-logo</title>
    <desc>Created with Sketch.</desc>
    <defs></defs>
    <g id="001" stroke="none" stroke-width="1" fill="none" fill-rule="evenodd">
        <g id="002-logo">
            <g id="Group" transform="translate(61.000000, 14.000000)" stroke="#5EDCC0" stroke-width="3" stroke-linecap="round" stroke-linejoin="round">
                <polygon id="Stroke-4591" points="29.2766667 62.4733333 38.86 54.4166667 26.6033333 46.2233333 32.3733333 37.3333333 0.666666667 37.3333333 0.666666667 77.3333333 35.11 77.3333333 37.0566667 65.6666667"></polygon>
                <polygon id="Stroke-4592" points="45.7056667 37.3333333 39.939 46.2233333 52.1923333 54.4166667 42.609 62.4733333 47.0556667 65.6666667 35.109 77.3333333 77.3323333 77.3333333 77.3323333 37.3333333"></polygon>
                <path d="M14,37.3333333 L14,27.3333333" id="Stroke-4593"></path>
                <polygon id="Stroke-4594" points="25.6666667 27.3333333 2.33333333 27.3333333 14 0.77"></polygon>
                <path d="M64,37.3333333 L64,27.3333333" id="Stroke-4595"></path>
                <polygon id="Stroke-4596" points="75.6666667 27.3333333 52.3333333 27.3333333 64 0.77"></polygon>
            </g>
            <path d="M3,141.5 C3,158.75 14.25,173 32.4,173 C42.75,173 50.85,168.95 54.45,166.1 C56.7,164.45 56.1,163.55 55.05,162.2 C54.15,161 53.4,159.95 52.5,158.75 C51.3,157.1 50.4,157.85 48.3,159.05 C44.85,161.15 39.75,163.55 33.45,163.55 C22.8,163.55 13.95,154.1 13.35,144.05 L56.55,144.05 C57.9,144.05 59.1,143 59.25,141.5 C59.4,140.45 59.55,138.5 59.55,137.45 C59.55,121.7 48.15,110 32.4,110 C14.25,110 3,124.55 3,141.5 L3,141.5 Z M13.5,135.65 C14.55,126.35 22.35,119.15 32.4,119.15 C41.55,119.15 48.75,126.95 49.2,135.65 L13.5,135.65 Z M71.4,141.65 C71.4,159.65 85.5,173 102.15,173 C112.35,173 120.6,167.6 125.1,160.4 C126,158.9 125.55,157.25 124.05,156.2 L122.4,155 C120.75,153.8 119.7,153.5 117.9,155.3 C114.45,158.6 111,163.1 102,163.1 C90.75,163.1 82.2,153.5 82.2,141.5 C82.2,129.5 90.9,120.2 102.15,120.2 C108,120.2 112.95,123.05 115.95,126.5 C117.3,127.7 118.05,129.2 120.3,127.1 L123.15,124.7 C124.5,123.65 124.8,121.85 123.75,120.5 C118.35,113.6 111.3,110 102.3,110 C85.95,110 71.4,123.95 71.4,141.65 L71.4,141.65 Z M167.55,173 C184.2,173 197.4,158.6 197.4,141.35 C197.4,124.4 184.2,110 167.55,110 C150.9,110 137.7,124.4 137.7,141.35 C137.7,158.6 150.9,173 167.55,173 Z M148.05,141.35 C148.05,129.5 156.6,119.9 167.55,119.9 C178.5,119.9 187.05,129.5 187.05,141.35 C187.05,153.5 178.5,163.25 167.55,163.25 C156.6,163.25 148.05,153.5 148.05,141.35 L148.05,141.35 Z" id="eco" fill="#FFFFFF"></path>
        </g>
    </g>
</svg>