<?xml version="1.0" encoding="UTF-8" standalone="no"?>
<svg width="200px" height="120px" viewBox="0 0 200 120" version="1.1" xmlns="http://www.w3.org/2000/svg" xmlns:xlink="http://www.w3.org/1999/xlink">
    <!-- Generator: Sketch 3.8.3 (29802) - http://www.bohemiancoding.com/sketch -->
    <title>003-logo</title>
    <desc>Created with Sketch.</desc>
    <defs></defs>
    <g id="001" stroke="none" stroke-width="1" fill="none" fill-rule="evenodd">
        <g id="003-logo">
            <path d="M15.09,91.62 C15.09,91.82 15.27,92 15.47,92 L16.27,92 C16.47,92 16.65,91.82 16.65,91.62 L16.65,78.38 C16.65,78.18 16.47,78 16.27,78 L15.47,78 C15.27,78 15.09,78.18 15.09,78.38 L15.09,91.62 Z M19.71,85.02 C19.71,89.02 22.93,92.2 26.93,92.2 C28.71,92.2 30.43,91.58 31.79,90.26 C31.93,90.12 31.97,89.84 31.81,89.72 L31.21,89.18 C31.09,89.1 30.93,89.08 30.73,89.24 C29.67,90.04 28.65,90.74 26.91,90.74 C23.75,90.74 21.33,88.08 21.33,85 C21.33,81.9 23.75,79.24 26.91,79.24 C28.27,79.24 29.69,79.84 30.73,80.74 C30.93,80.94 31.09,80.96 31.25,80.76 L31.79,80.22 C31.95,80.06 31.93,79.82 31.77,79.66 C30.41,78.5 28.95,77.8 26.93,77.8 C22.93,77.8 19.71,81.02 19.71,85.02 L19.71,85.02 Z M34.87,91.62 C34.87,91.82 35.03,92 35.25,92 L43.13,92 C43.35,92 43.51,91.82 43.51,91.62 L43.51,91.04 C43.51,90.84 43.35,90.66 43.13,90.66 L36.41,90.66 L36.41,85.56 L42.15,85.56 C42.35,85.56 42.53,85.4 42.53,85.18 L42.53,84.6 C42.53,84.4 42.35,84.22 42.15,84.22 L36.41,84.22 L36.41,79.34 L43.13,79.34 C43.35,79.34 43.51,79.16 43.51,78.96 L43.51,78.38 C43.51,78.18 43.35,78 43.13,78 L35.25,78 C35.03,78 34.87,78.18 34.87,78.38 L34.87,91.62 Z M46.71,91.62 C46.71,91.82 46.87,92 47.09,92 L54.01,92 C54.23,92 54.39,91.82 54.39,91.62 L54.39,91.04 C54.39,90.84 54.23,90.66 54.01,90.66 L48.25,90.66 L48.25,78.38 C48.25,78.18 48.07,78 47.87,78 L47.09,78 C46.87,78 46.71,78.18 46.71,78.38 L46.71,91.62 Z M55.57,92 L56.37,92 C56.55,92 56.67,91.88 56.71,91.78 L58.17,88.48 L65.27,88.48 L66.75,91.78 C66.79,91.88 66.91,92 67.09,92 L67.89,92 C68.19,92 68.35,91.74 68.23,91.48 L62.19,78.02 C62.13,77.9 62.03,77.8 61.85,77.8 L61.65,77.8 C61.47,77.8 61.37,77.9 61.31,78.02 L55.23,91.48 C55.11,91.74 55.27,92 55.57,92 L55.57,92 Z M58.73,87.24 L61.65,80.68 L61.81,80.68 C62.79,82.86 63.75,85.06 64.73,87.24 L58.73,87.24 Z M70.41,91.62 C70.41,91.82 70.59,92 70.79,92 L71.49,92 C71.71,92 71.87,91.82 71.87,91.62 L71.87,80.74 L71.89,80.74 L81.07,92.2 L81.43,92.2 C81.63,92.2 81.81,92.04 81.81,91.84 L81.81,78.38 C81.81,78.18 81.63,78 81.43,78 L80.73,78 C80.51,78 80.35,78.18 80.35,78.38 L80.35,89.04 L80.31,89.04 L71.29,77.8 L70.79,77.8 C70.59,77.8 70.41,77.96 70.41,78.16 L70.41,91.62 Z M85.89,91.62 C85.89,91.82 86.05,92 86.25,92 L90.73,92 C94.59,92 97.75,88.86 97.75,84.98 C97.75,81.14 94.59,78 90.73,78 L86.25,78 C86.05,78 85.89,78.18 85.89,78.38 L85.89,91.62 Z M87.41,90.62 L87.41,79.36 L90.41,79.36 C93.69,79.36 96.07,81.7 96.07,84.98 C96.07,88.28 93.69,90.62 90.41,90.62 L87.41,90.62 Z M100.83,91.62 C100.83,91.82 101.01,92 101.21,92 L102.01,92 C102.21,92 102.39,91.82 102.39,91.62 L102.39,78.38 C102.39,78.18 102.21,78 102.01,78 L101.21,78 C101.01,78 100.83,78.18 100.83,78.38 L100.83,91.62 Z M105.45,85.02 C105.45,89.02 108.67,92.2 112.67,92.2 C114.45,92.2 116.17,91.58 117.53,90.26 C117.67,90.12 117.71,89.84 117.55,89.72 L116.95,89.18 C116.83,89.1 116.67,89.08 116.47,89.24 C115.41,90.04 114.39,90.74 112.65,90.74 C109.49,90.74 107.07,88.08 107.07,85 C107.07,81.9 109.49,79.24 112.65,79.24 C114.01,79.24 115.43,79.84 116.47,80.74 C116.67,80.94 116.83,80.96 116.99,80.76 L117.53,80.22 C117.69,80.06 117.67,79.82 117.51,79.66 C116.15,78.5 114.69,77.8 112.67,77.8 C108.67,77.8 105.45,81.02 105.45,85.02 L105.45,85.02 Z M127.03,91.62 C127.03,91.82 127.21,92 127.41,92 L128.17,92 C128.37,92 128.55,91.82 128.55,91.62 L128.55,79.34 L132.03,79.34 C132.25,79.34 132.41,79.16 132.41,78.96 L132.41,78.38 C132.41,78.18 132.25,78 132.03,78 L123.55,78 C123.33,78 123.17,78.18 123.17,78.38 L123.17,78.96 C123.17,79.16 123.33,79.34 123.55,79.34 L127.03,79.34 L127.03,91.62 Z M133.35,85.02 C133.35,89.02 136.53,92.2 140.53,92.2 C144.53,92.2 147.73,89.02 147.73,85.02 C147.73,81.02 144.53,77.8 140.53,77.8 C136.53,77.8 133.35,81.02 133.35,85.02 L133.35,85.02 Z M134.75,85.02 C134.75,81.84 137.35,79.2 140.53,79.2 C143.71,79.2 146.33,81.84 146.33,85.02 C146.33,88.2 143.71,90.8 140.53,90.8 C137.35,90.8 134.75,88.2 134.75,85.02 L134.75,85.02 Z M150.61,86.84 C150.61,89.88 152.75,92.2 155.89,92.2 C159.05,92.2 161.21,89.88 161.21,86.84 L161.21,78.38 C161.21,78.18 161.03,78 160.83,78 L160.07,78 C159.85,78 159.69,78.18 159.69,78.38 L159.69,86.76 C159.69,89.04 158.25,90.78 155.89,90.78 C153.55,90.78 152.13,89 152.13,86.72 L152.13,78.38 C152.13,78.18 151.97,78 151.75,78 L150.99,78 C150.79,78 150.61,78.18 150.61,78.38 L150.61,86.84 Z M165.11,91.62 C165.11,91.82 165.27,92 165.49,92 L166.27,92 C166.47,92 166.65,91.82 166.65,91.62 L166.65,86.52 L170.47,86.52 L173.13,91.82 C173.17,91.9 173.27,92 173.45,92 L174.47,92 C174.81,92 174.95,91.68 174.81,91.42 L172.07,86.34 C173.81,85.64 175.03,84.1 175.03,82.26 C175.03,79.88 173.07,78 170.67,78 L165.49,78 C165.27,78 165.11,78.18 165.11,78.38 L165.11,91.62 Z M166.69,85.2 L166.69,79.46 L170.57,79.46 C172.11,79.46 173.45,80.76 173.45,82.28 C173.45,83.92 172.11,85.2 170.57,85.2 L166.69,85.2 Z M177.55,90.58 C177.81,90.82 179.41,92.2 181.77,92.2 C184.11,92.2 186.09,90.68 186.09,88.6 C186.09,86.28 184.35,85.26 181.65,84.16 C179.97,83.46 178.95,82.68 178.95,81.34 C178.95,80.5 179.59,79.14 181.71,79.14 C182.93,79.14 184.19,79.98 184.33,80.06 C184.65,80.24 184.85,80.16 185.03,79.88 C185.11,79.76 185.19,79.62 185.27,79.5 C185.51,79.12 185.27,78.88 185.15,78.82 C185.15,78.82 183.69,77.8 181.73,77.8 C178.55,77.8 177.47,80 177.47,81.36 C177.47,83.64 178.79,84.54 180.99,85.5 C183.29,86.46 184.49,87.28 184.49,88.66 C184.49,89.84 183.43,90.86 181.81,90.86 C180.03,90.86 178.57,89.46 178.43,89.34 C178.15,89.1 177.93,89.26 177.73,89.52 C177.63,89.64 177.53,89.78 177.43,89.9 C177.19,90.28 177.39,90.44 177.55,90.58 L177.55,90.58 Z" id="ICELANDIC-TOURS" fill="#084B85"></path>
            <polyline id="Path-46" stroke="#084B85" transform="translate(100.153758, 44.479739) scale(-1, 1) translate(-100.153758, -44.479739) " points="14.8568371 66.0010071 49.1198767 22.95847 67.4795749 60.0000006 94.9257305 44.4797389 120.634075 66.0010076 138.915835 31.5922534 148.024363 51.0913531 166.370814 25.1418878 185.450679 66.0010071"></polyline>
            <polyline id="Path-46" stroke="#D5BEBF" points="14.8568371 66.0010071 49.1198767 22.95847 64.9644845 50.0461441 80.7854301 33.33258 120.634075 66.0010076 133.399577 44.0691746 143.076407 60.143356 160.806942 11 185.450679 66.0010071"></polyline>
        </g>
    </g>
</svg>