<?xml version="1.0" encoding="UTF-8" standalone="no"?>
<svg width="200px" height="180px" viewBox="0 0 200 180" version="1.1" xmlns="http://www.w3.org/2000/svg" xmlns:xlink="http://www.w3.org/1999/xlink">
    <!-- Generator: Sketch 3.8.3 (29802) - http://www.bohemiancoding.com/sketch -->
    <title>004-logo</title>
    <desc>Created with Sketch.</desc>
    <defs>
        <rect id="path-1" x="35" y="58" width="130" height="110"></rect>
        <mask id="mask-2" maskContentUnits="userSpaceOnUse" maskUnits="objectBoundingBox" x="0" y="0" width="130" height="110" fill="white">
            <use xlink:href="#path-1"></use>
        </mask>
    </defs>
    <g id="001" stroke="none" stroke-width="1" fill="none" fill-rule="evenodd">
        <g id="004-logo">
            <g id="words" transform="translate(54.000000, 84.000000)" fill="#FFFFFF">
                <path d="M8.136,12.132 L8.136,7.344 C8.748,7.2 9.36,7.092 9.936,7.092 C11.52,7.092 12.888,7.74 12.888,9.504 C12.888,11.376 11.88,12.168 9.18,12.168 C8.856,12.168 8.532,12.168 8.136,12.132 L8.136,12.132 Z M8.136,25.596 L8.136,18.108 C9,18.18 9.9,18.252 10.692,18.252 C17.244,18.252 21.096,15.372 21.096,9.396 C21.096,2.304 15.876,0 9.468,0 C6.588,0 2.988,0.468 0,1.152 L0,25.596 L8.136,25.596 Z M45.828,0.396 L37.872,0.396 L37.872,12.996 C37.872,16.704 37.476,18.972 34.632,18.972 C31.788,18.972 31.248,16.704 31.248,12.996 L31.248,0.396 L23.112,0.396 L23.112,12.996 C23.112,21.888 26.28,26.028 34.56,26.028 C42.66,26.028 45.828,21.888 45.828,12.996 L45.828,0.396 Z M63,26.064 L71.892,25.092 L66.6,16.848 C69.12,15.444 70.524,12.996 70.524,9.396 C70.524,2.304 65.304,0 58.896,0 C55.728,0 52.344,0.468 49.428,1.152 L49.428,25.596 L57.564,25.596 L57.564,18.108 L59.148,18.108 L63,26.064 Z M57.564,12.168 L57.564,7.344 C58.176,7.2 58.788,7.092 59.364,7.092 C60.948,7.092 62.316,7.74 62.316,9.504 C62.316,11.232 61.38,12.168 59.04,12.168 L57.564,12.168 Z M91.944,25.596 L91.944,18.504 L82.08,18.504 L82.08,15.192 L89.46,15.192 L89.964,10.116 L82.08,10.116 L82.08,7.488 L91.944,7.488 L91.944,0.396 L73.944,0.396 L73.944,25.596 L91.944,25.596 Z" id="PURE"></path>
                <path d="M18.54,58.632 L18.54,51.54 L8.136,51.54 L8.136,33.432 L0,33.432 L0,58.632 L18.54,58.632 Z M31.752,51.972 C28.872,51.972 28.332,49.704 28.332,46.032 C28.332,42.36 28.872,40.092 31.752,40.092 C34.668,40.092 35.028,42.36 35.028,46.032 C35.028,49.704 34.668,51.972 31.752,51.972 L31.752,51.972 Z M31.608,59.064 C39.852,59.064 43.236,54.924 43.236,46.032 C43.236,37.14 39.852,33 31.608,33 C23.4,33 20.124,37.14 20.124,46.032 C20.124,54.924 23.4,59.064 31.608,59.064 L31.608,59.064 Z M65.412,56.868 L62.712,50.748 C61.056,51.54 59.472,51.684 58.14,51.684 C55.728,51.684 54.252,50.136 54.252,46.032 C54.252,41.928 55.728,40.38 58.14,40.38 C59.472,40.38 61.056,40.524 62.712,41.316 L65.412,35.196 C62.568,33.432 59.652,33 56.484,33 C50.58,33 46.044,36.6 46.044,46.032 C46.044,55.464 50.58,59.064 56.484,59.064 C59.652,59.064 62.568,58.632 65.412,56.868 L65.412,56.868 Z M82.8,59.172 L92.016,57.516 L84.312,45.636 L91.008,34.368 L81.648,33.432 L76.392,44.88 L76.392,33.432 L68.256,33.432 L68.256,58.632 L76.392,58.632 L76.392,46.86 L82.8,59.172 Z" id="LOCK"></path>
            </g>
            <use id="Rectangle-2" stroke="#FFFFFF" mask="url(#mask-2)" stroke-width="16" xlink:href="#path-1"></use>
            <path d="M141.705472,62 C141.89996,60.3604273 142,58.6918965 142,57 C142,33.8040405 123.195959,15 100,15 C76.8040405,15 58,33.8040405 58,57 C58,58.6918965 58.1000401,60.3604273 58.2945277,62 L141.705472,62 Z" id="Combined-Shape" stroke="#FFFFFF" stroke-width="8"></path>
        </g>
    </g>
</svg>