<?xml version="1.0" encoding="UTF-8" standalone="no"?>
<svg width="960px" height="480px" viewBox="0 0 960 480" version="1.1" xmlns="http://www.w3.org/2000/svg" xmlns:xlink="http://www.w3.org/1999/xlink">
    <!-- Generator: Sketch 3.8.3 (29802) - http://www.bohemiancoding.com/sketch -->
    <title>007-background</title>
    <desc>Created with Sketch.</desc>
    <defs></defs>
    <g id="001" stroke="none" stroke-width="1" fill="none" fill-rule="evenodd" stroke-linejoin="round">
        <g id="007-background">
            <g id="icons-9" transform="translate(48.000000, 48.000000)">
                <g id="icon" transform="translate(79.000000, 82.000000)" stroke="#EEEEEF" stroke-linecap="round">
                    <path d="M23.5,16 C23.5,17.932 21.934,19.5 20,19.5 C18.066,19.5 16.5,17.932 16.5,16 C16.5,14.066 18.066,12.5 20,12.5 C21.934,12.5 23.5,14.066 23.5,16 L23.5,16 Z" id="Stroke-135"></path>
                    <path d="M23.5,4 C23.5,2.066 21.934,0.5 20,0.5 C18.066,0.5 16.5,2.066 16.5,4 C16.5,5.932 18.066,7.5 20,7.5 C21.934,7.5 23.5,5.932 23.5,4 L23.5,4 Z" id="Stroke-137"></path>
                    <path d="M16.5,16 C16.5,9.925 11.575,5 5.5,5 C4.375,5 1.336,5.371 0.5,5.998 L14.688,10 L0.5,14 C1.336,14.627 4.375,15 5.5,15 C11.575,15 16.5,10.075 16.5,4" id="Stroke-139"></path>
                </g>
                <g id="icon" transform="translate(80.000000, 1.000000)" stroke="#7782E4" stroke-linecap="round">
                    <path d="M5.5,16.5 L2.5,16.5 C1.4,16.5 0.5,15.6 0.5,14.5 L0.5,8.5 C0.5,7.4 1.4,6.5 2.5,6.5 L21.5,6.5 C22.601,6.5 23.5,7.4 23.5,8.5 L23.5,14.5 C23.5,15.6 22.601,16.5 21.5,16.5 L18.5,16.5" id="Stroke-693"></path>
                    <polyline id="Stroke-694" points="5.5 4.5 5.5 0.5 15.5 0.5 18.5 3.5 18.5 4.5"></polyline>
                    <polygon id="Stroke-695" points="18.5 21.5 5.5 21.5 5.5 13.5 18.5 13.5"></polygon>
                    <path d="M4.5,9.5 C4.5,10.052 4.053,10.5 3.5,10.5 C2.948,10.5 2.5,10.052 2.5,9.5 C2.5,8.947 2.948,8.5 3.5,8.5 C4.053,8.5 4.5,8.947 4.5,9.5 L4.5,9.5 Z" id="Stroke-696"></path>
                    <path d="M7.5,15.5 L16.5,15.5" id="Stroke-697"></path>
                    <path d="M7.5,17.5 L16.5,17.5" id="Stroke-698"></path>
                    <path d="M7.5,19.5 L16.5,19.5" id="Stroke-699"></path>
                    <polyline id="Stroke-700" points="15.5 0.5 15.5 3.5 18.5 3.5"></polyline>
                </g>
                <g id="icon" transform="translate(80.000000, 160.000000)" stroke="#EEEEEF" stroke-linecap="round">
                    <path d="M9.5,14.5 L0.5,23.5" id="Stroke-131"></path>
                    <polygon id="Stroke-133" points="21.5 9.5 23.5 7.5 16.5 0.5 14.5 2.5 15.5 3.5 10.5 8.5 6.5 8.5 5 10 14 19 15.5 17.5 15.5 13.5 20.5 8.5"></polygon>
                </g>
                <g id="icon" transform="translate(160.000000, 82.000000)" stroke-linecap="round" stroke="#F8584D">
                    <polyline id="Stroke-167" points="19 9.5 23.5 9.5 23.5 18.5 0.5 18.5 0.5 9.5 7 9.5"></polyline>
                    <polygon id="Stroke-168" points="13.1611 11.8804 8.2121 14.0004 10.3331 9.0504 19.1721 0.2124 22.0001 3.0404"></polygon>
                    <path d="M20.1641,4.876 L17.3361,2.048" id="Stroke-169"></path>
                    <path d="M13.1611,11.8804 L10.3331,9.0504" id="Stroke-170"></path>
                </g>
                <g id="icon" transform="translate(1.000000, 80.000000)" stroke="#EEEEEF" stroke-linecap="round">
                    <path d="M4,23.5 L16,23.5" id="Stroke-238"></path>
                    <path d="M4,23.5 L2,0.5" id="Stroke-239"></path>
                    <path d="M16,23.5 L18,0.5" id="Stroke-240"></path>
                    <path d="M0.5,0.5 L19.5,0.5" id="Stroke-241"></path>
                    <path d="M7,0.5 L8,23.5" id="Stroke-242"></path>
                    <path d="M13,0.5 L12,23.5" id="Stroke-243"></path>
                    <path d="M3.5,17.5 L16.5,17.5" id="Stroke-244"></path>
                    <path d="M3,11.5 L17,11.5" id="Stroke-245"></path>
                    <path d="M2.5,5.5 L17.5,5.5" id="Stroke-246"></path>
                </g>
                <g id="icon" transform="translate(162.000000, 0.000000)" stroke-linecap="round" stroke="#EEEEEF">
                    <polygon id="Stroke-364" points="10.5 7.0244 20.5 2.0244 20.5 17.5244 10.5 22.5244 0.5 17.5244 0.5 2.0244"></polygon>
                    <polyline id="Stroke-365" points="18.499 0.5 10.499 4.548 2.499 0.5"></polyline>
                    <path d="M10.5,7.0244 L10.5,22.5244" id="Stroke-366"></path>
                </g>
                <g id="icon" transform="translate(0.000000, 3.000000)" stroke-linecap="round" stroke="#EEEEEF">
                    <polygon id="Stroke-374" points="16.5 8.5 16.5 10.5 7.5 10.5 7.5 8.5 0.5 8.5 0.5 16.5 23.5 16.5 23.5 8.5"></polygon>
                    <path d="M9.5,8.5 L14.5,8.5" id="Stroke-375"></path>
                    <path d="M2.5,6.5 L21.5,6.5" id="Stroke-376"></path>
                    <path d="M2.5,4.5 L21.5,4.5" id="Stroke-377"></path>
                    <path d="M2.5,2.5 L21.5,2.5" id="Stroke-378"></path>
                    <path d="M2.5,0.5 L21.5,0.5" id="Stroke-379"></path>
                </g>
                <g id="icon" transform="translate(0.000000, 164.000000)" stroke="#EEEEEF" stroke-linecap="round">
                    <path d="M23.5,14 C23.5,14.828 22.829,15.5 22,15.5 L2,15.5 C1.171,15.5 0.5,14.828 0.5,14 L0.5,2 C0.5,1.172 1.171,0.5 2,0.5 L22,0.5 C22.829,0.5 23.5,1.172 23.5,2 L23.5,14 L23.5,14 Z" id="Stroke-140"></path>
                    <polygon id="Stroke-141" points="20.5 7.5 16.5 7.5 16.5 3.5 20.5 3.5"></polygon>
                    <path d="M4.5,4.5 L6.5,4.5" id="Stroke-142"></path>
                    <path d="M4.5,10.5 L13.5,10.5" id="Stroke-143"></path>
                    <path d="M4.5,12.5 L16.5,12.5" id="Stroke-144"></path>
                </g>
                <g id="icon" transform="translate(161.000000, 160.000000)" stroke="#EEEEEF">
                    <polygon id="Stroke-640" stroke-linecap="round" points="20.5 23.5 3.5 23.5 3.5 0.5 20.5 0.5"></polygon>
                    <path d="M3.5,0.5 L1.5,0.5 C0.95,0.5 0.5,0.95 0.5,1.5 L0.5,22.5 C0.5,23.05 0.95,23.5 1.5,23.5 L3.5,23.5" id="Stroke-641" stroke-linecap="round"></path>
                    <path d="M13,12 L13,13.5 L15.538,14.226 C16.067,14.377 16.5,14.95 16.5,15.5 L16.5,18.5 L6.5,18.5 L6.5,15.5 C6.5,14.95 6.933,14.377 7.461,14.226 L10,13.5 L10,12" id="Stroke-642"></path>
                    <path d="M14.5,9.2705 C14.5,11.0785 13.156,12.5425 11.5,12.5425 C9.843,12.5425 8.5,11.0785 8.5,9.2705 C8.5,7.4645 9.843,5.9995 11.5,5.9995 C13.156,5.9995 14.5,7.4645 14.5,9.2705 L14.5,9.2705 Z" id="Stroke-643"></path>
                    <path d="M14.4687,8.6758 C13.9687,9.1758 12.5387,9.1738 11.9997,8.1708 C10.9997,9.1708 9.3747,9.1708 8.5657,8.5998" id="Stroke-644"></path>
                    <path d="M20.5,2 L21.5,2 C22.6,2 23.5,2.9 23.5,4 L23.5,7 L20.5,7" id="Stroke-645"></path>
                    <polyline id="Stroke-646" points="20.5 7 23.5 7 23.5 12 20.5 12"></polyline>
                    <polyline id="Stroke-647" points="20.5 12 23.5 12 23.5 17 20.5 17"></polyline>
                    <path d="M20.5,17 L23.5,17 L23.5,20 C23.5,21.1 22.6,22 21.5,22 L20.5,22" id="Stroke-648"></path>
                </g>
            </g>
            <g id="icons-9" transform="translate(288.000000, 48.000000)" stroke="#EEEEEF">
                <g id="icon" transform="translate(79.000000, 82.000000)" stroke-linecap="round">
                    <path d="M23.5,16 C23.5,17.932 21.934,19.5 20,19.5 C18.066,19.5 16.5,17.932 16.5,16 C16.5,14.066 18.066,12.5 20,12.5 C21.934,12.5 23.5,14.066 23.5,16 L23.5,16 Z" id="Stroke-135"></path>
                    <path d="M23.5,4 C23.5,2.066 21.934,0.5 20,0.5 C18.066,0.5 16.5,2.066 16.5,4 C16.5,5.932 18.066,7.5 20,7.5 C21.934,7.5 23.5,5.932 23.5,4 L23.5,4 Z" id="Stroke-137"></path>
                    <path d="M16.5,16 C16.5,9.925 11.575,5 5.5,5 C4.375,5 1.336,5.371 0.5,5.998 L14.688,10 L0.5,14 C1.336,14.627 4.375,15 5.5,15 C11.575,15 16.5,10.075 16.5,4" id="Stroke-139"></path>
                </g>
                <g id="icon" transform="translate(80.000000, 1.000000)" stroke-linecap="round">
                    <path d="M5.5,16.5 L2.5,16.5 C1.4,16.5 0.5,15.6 0.5,14.5 L0.5,8.5 C0.5,7.4 1.4,6.5 2.5,6.5 L21.5,6.5 C22.601,6.5 23.5,7.4 23.5,8.5 L23.5,14.5 C23.5,15.6 22.601,16.5 21.5,16.5 L18.5,16.5" id="Stroke-693"></path>
                    <polyline id="Stroke-694" points="5.5 4.5 5.5 0.5 15.5 0.5 18.5 3.5 18.5 4.5"></polyline>
                    <polygon id="Stroke-695" points="18.5 21.5 5.5 21.5 5.5 13.5 18.5 13.5"></polygon>
                    <path d="M4.5,9.5 C4.5,10.052 4.053,10.5 3.5,10.5 C2.948,10.5 2.5,10.052 2.5,9.5 C2.5,8.947 2.948,8.5 3.5,8.5 C4.053,8.5 4.5,8.947 4.5,9.5 L4.5,9.5 Z" id="Stroke-696"></path>
                    <path d="M7.5,15.5 L16.5,15.5" id="Stroke-697"></path>
                    <path d="M7.5,17.5 L16.5,17.5" id="Stroke-698"></path>
                    <path d="M7.5,19.5 L16.5,19.5" id="Stroke-699"></path>
                    <polyline id="Stroke-700" points="15.5 0.5 15.5 3.5 18.5 3.5"></polyline>
                </g>
                <g id="icon" transform="translate(80.000000, 160.000000)" stroke-linecap="round">
                    <path d="M9.5,14.5 L0.5,23.5" id="Stroke-131"></path>
                    <polygon id="Stroke-133" points="21.5 9.5 23.5 7.5 16.5 0.5 14.5 2.5 15.5 3.5 10.5 8.5 6.5 8.5 5 10 14 19 15.5 17.5 15.5 13.5 20.5 8.5"></polygon>
                </g>
                <g id="icon" transform="translate(160.000000, 82.000000)" stroke-linecap="round">
                    <polyline id="Stroke-167" points="19 9.5 23.5 9.5 23.5 18.5 0.5 18.5 0.5 9.5 7 9.5"></polyline>
                    <polygon id="Stroke-168" points="13.1611 11.8804 8.2121 14.0004 10.3331 9.0504 19.1721 0.2124 22.0001 3.0404"></polygon>
                    <path d="M20.1641,4.876 L17.3361,2.048" id="Stroke-169"></path>
                    <path d="M13.1611,11.8804 L10.3331,9.0504" id="Stroke-170"></path>
                </g>
                <g id="icon" transform="translate(1.000000, 80.000000)" stroke-linecap="round">
                    <path d="M4,23.5 L16,23.5" id="Stroke-238"></path>
                    <path d="M4,23.5 L2,0.5" id="Stroke-239"></path>
                    <path d="M16,23.5 L18,0.5" id="Stroke-240"></path>
                    <path d="M0.5,0.5 L19.5,0.5" id="Stroke-241"></path>
                    <path d="M7,0.5 L8,23.5" id="Stroke-242"></path>
                    <path d="M13,0.5 L12,23.5" id="Stroke-243"></path>
                    <path d="M3.5,17.5 L16.5,17.5" id="Stroke-244"></path>
                    <path d="M3,11.5 L17,11.5" id="Stroke-245"></path>
                    <path d="M2.5,5.5 L17.5,5.5" id="Stroke-246"></path>
                </g>
                <g id="icon" transform="translate(162.000000, 0.000000)" stroke-linecap="round">
                    <polygon id="Stroke-364" points="10.5 7.0244 20.5 2.0244 20.5 17.5244 10.5 22.5244 0.5 17.5244 0.5 2.0244"></polygon>
                    <polyline id="Stroke-365" points="18.499 0.5 10.499 4.548 2.499 0.5"></polyline>
                    <path d="M10.5,7.0244 L10.5,22.5244" id="Stroke-366"></path>
                </g>
                <g id="icon" transform="translate(0.000000, 3.000000)" stroke-linecap="round">
                    <polygon id="Stroke-374" points="16.5 8.5 16.5 10.5 7.5 10.5 7.5 8.5 0.5 8.5 0.5 16.5 23.5 16.5 23.5 8.5"></polygon>
                    <path d="M9.5,8.5 L14.5,8.5" id="Stroke-375"></path>
                    <path d="M2.5,6.5 L21.5,6.5" id="Stroke-376"></path>
                    <path d="M2.5,4.5 L21.5,4.5" id="Stroke-377"></path>
                    <path d="M2.5,2.5 L21.5,2.5" id="Stroke-378"></path>
                    <path d="M2.5,0.5 L21.5,0.5" id="Stroke-379"></path>
                </g>
                <g id="icon" transform="translate(0.000000, 164.000000)" stroke-linecap="round">
                    <path d="M23.5,14 C23.5,14.828 22.829,15.5 22,15.5 L2,15.5 C1.171,15.5 0.5,14.828 0.5,14 L0.5,2 C0.5,1.172 1.171,0.5 2,0.5 L22,0.5 C22.829,0.5 23.5,1.172 23.5,2 L23.5,14 L23.5,14 Z" id="Stroke-140"></path>
                    <polygon id="Stroke-141" points="20.5 7.5 16.5 7.5 16.5 3.5 20.5 3.5"></polygon>
                    <path d="M4.5,4.5 L6.5,4.5" id="Stroke-142"></path>
                    <path d="M4.5,10.5 L13.5,10.5" id="Stroke-143"></path>
                    <path d="M4.5,12.5 L16.5,12.5" id="Stroke-144"></path>
                </g>
                <g id="icon" transform="translate(161.000000, 160.000000)">
                    <polygon id="Stroke-640" stroke-linecap="round" points="20.5 23.5 3.5 23.5 3.5 0.5 20.5 0.5"></polygon>
                    <path d="M3.5,0.5 L1.5,0.5 C0.95,0.5 0.5,0.95 0.5,1.5 L0.5,22.5 C0.5,23.05 0.95,23.5 1.5,23.5 L3.5,23.5" id="Stroke-641" stroke-linecap="round"></path>
                    <path d="M13,12 L13,13.5 L15.538,14.226 C16.067,14.377 16.5,14.95 16.5,15.5 L16.5,18.5 L6.5,18.5 L6.5,15.5 C6.5,14.95 6.933,14.377 7.461,14.226 L10,13.5 L10,12" id="Stroke-642"></path>
                    <path d="M14.5,9.2705 C14.5,11.0785 13.156,12.5425 11.5,12.5425 C9.843,12.5425 8.5,11.0785 8.5,9.2705 C8.5,7.4645 9.843,5.9995 11.5,5.9995 C13.156,5.9995 14.5,7.4645 14.5,9.2705 L14.5,9.2705 Z" id="Stroke-643"></path>
                    <path d="M14.4687,8.6758 C13.9687,9.1758 12.5387,9.1738 11.9997,8.1708 C10.9997,9.1708 9.3747,9.1708 8.5657,8.5998" id="Stroke-644"></path>
                    <path d="M20.5,2 L21.5,2 C22.6,2 23.5,2.9 23.5,4 L23.5,7 L20.5,7" id="Stroke-645"></path>
                    <polyline id="Stroke-646" points="20.5 7 23.5 7 23.5 12 20.5 12"></polyline>
                    <polyline id="Stroke-647" points="20.5 12 23.5 12 23.5 17 20.5 17"></polyline>
                    <path d="M20.5,17 L23.5,17 L23.5,20 C23.5,21.1 22.6,22 21.5,22 L20.5,22" id="Stroke-648"></path>
                </g>
            </g>
            <g id="icons-9" transform="translate(528.000000, 48.000000)">
                <g id="icon" transform="translate(79.000000, 82.000000)" stroke="#EEEEEF" stroke-linecap="round">
                    <path d="M23.5,16 C23.5,17.932 21.934,19.5 20,19.5 C18.066,19.5 16.5,17.932 16.5,16 C16.5,14.066 18.066,12.5 20,12.5 C21.934,12.5 23.5,14.066 23.5,16 L23.5,16 Z" id="Stroke-135"></path>
                    <path d="M23.5,4 C23.5,2.066 21.934,0.5 20,0.5 C18.066,0.5 16.5,2.066 16.5,4 C16.5,5.932 18.066,7.5 20,7.5 C21.934,7.5 23.5,5.932 23.5,4 L23.5,4 Z" id="Stroke-137"></path>
                    <path d="M16.5,16 C16.5,9.925 11.575,5 5.5,5 C4.375,5 1.336,5.371 0.5,5.998 L14.688,10 L0.5,14 C1.336,14.627 4.375,15 5.5,15 C11.575,15 16.5,10.075 16.5,4" id="Stroke-139"></path>
                </g>
                <g id="icon" transform="translate(80.000000, 1.000000)" stroke="#EEEEEF" stroke-linecap="round">
                    <path d="M5.5,16.5 L2.5,16.5 C1.4,16.5 0.5,15.6 0.5,14.5 L0.5,8.5 C0.5,7.4 1.4,6.5 2.5,6.5 L21.5,6.5 C22.601,6.5 23.5,7.4 23.5,8.5 L23.5,14.5 C23.5,15.6 22.601,16.5 21.5,16.5 L18.5,16.5" id="Stroke-693"></path>
                    <polyline id="Stroke-694" points="5.5 4.5 5.5 0.5 15.5 0.5 18.5 3.5 18.5 4.5"></polyline>
                    <polygon id="Stroke-695" points="18.5 21.5 5.5 21.5 5.5 13.5 18.5 13.5"></polygon>
                    <path d="M4.5,9.5 C4.5,10.052 4.053,10.5 3.5,10.5 C2.948,10.5 2.5,10.052 2.5,9.5 C2.5,8.947 2.948,8.5 3.5,8.5 C4.053,8.5 4.5,8.947 4.5,9.5 L4.5,9.5 Z" id="Stroke-696"></path>
                    <path d="M7.5,15.5 L16.5,15.5" id="Stroke-697"></path>
                    <path d="M7.5,17.5 L16.5,17.5" id="Stroke-698"></path>
                    <path d="M7.5,19.5 L16.5,19.5" id="Stroke-699"></path>
                    <polyline id="Stroke-700" points="15.5 0.5 15.5 3.5 18.5 3.5"></polyline>
                </g>
                <g id="icon" transform="translate(80.000000, 160.000000)" stroke="#FEA437" stroke-linecap="round">
                    <path d="M9.5,14.5 L0.5,23.5" id="Stroke-131"></path>
                    <polygon id="Stroke-133" points="21.5 9.5 23.5 7.5 16.5 0.5 14.5 2.5 15.5 3.5 10.5 8.5 6.5 8.5 5 10 14 19 15.5 17.5 15.5 13.5 20.5 8.5"></polygon>
                </g>
                <g id="icon" transform="translate(160.000000, 82.000000)" stroke-linecap="round" stroke="#EEEEEF">
                    <polyline id="Stroke-167" points="19 9.5 23.5 9.5 23.5 18.5 0.5 18.5 0.5 9.5 7 9.5"></polyline>
                    <polygon id="Stroke-168" points="13.1611 11.8804 8.2121 14.0004 10.3331 9.0504 19.1721 0.2124 22.0001 3.0404"></polygon>
                    <path d="M20.1641,4.876 L17.3361,2.048" id="Stroke-169"></path>
                    <path d="M13.1611,11.8804 L10.3331,9.0504" id="Stroke-170"></path>
                </g>
                <g id="icon" transform="translate(1.000000, 80.000000)" stroke="#7782E4" stroke-linecap="round">
                    <path d="M4,23.5 L16,23.5" id="Stroke-238"></path>
                    <path d="M4,23.5 L2,0.5" id="Stroke-239"></path>
                    <path d="M16,23.5 L18,0.5" id="Stroke-240"></path>
                    <path d="M0.5,0.5 L19.5,0.5" id="Stroke-241"></path>
                    <path d="M7,0.5 L8,23.5" id="Stroke-242"></path>
                    <path d="M13,0.5 L12,23.5" id="Stroke-243"></path>
                    <path d="M3.5,17.5 L16.5,17.5" id="Stroke-244"></path>
                    <path d="M3,11.5 L17,11.5" id="Stroke-245"></path>
                    <path d="M2.5,5.5 L17.5,5.5" id="Stroke-246"></path>
                </g>
                <g id="icon" transform="translate(162.000000, 0.000000)" stroke-linecap="round" stroke="#EEEEEF">
                    <polygon id="Stroke-364" points="10.5 7.0244 20.5 2.0244 20.5 17.5244 10.5 22.5244 0.5 17.5244 0.5 2.0244"></polygon>
                    <polyline id="Stroke-365" points="18.499 0.5 10.499 4.548 2.499 0.5"></polyline>
                    <path d="M10.5,7.0244 L10.5,22.5244" id="Stroke-366"></path>
                </g>
                <g id="icon" transform="translate(0.000000, 3.000000)" stroke-linecap="round" stroke="#EEEEEF">
                    <polygon id="Stroke-374" points="16.5 8.5 16.5 10.5 7.5 10.5 7.5 8.5 0.5 8.5 0.5 16.5 23.5 16.5 23.5 8.5"></polygon>
                    <path d="M9.5,8.5 L14.5,8.5" id="Stroke-375"></path>
                    <path d="M2.5,6.5 L21.5,6.5" id="Stroke-376"></path>
                    <path d="M2.5,4.5 L21.5,4.5" id="Stroke-377"></path>
                    <path d="M2.5,2.5 L21.5,2.5" id="Stroke-378"></path>
                    <path d="M2.5,0.5 L21.5,0.5" id="Stroke-379"></path>
                </g>
                <g id="icon" transform="translate(0.000000, 164.000000)" stroke="#EEEEEF" stroke-linecap="round">
                    <path d="M23.5,14 C23.5,14.828 22.829,15.5 22,15.5 L2,15.5 C1.171,15.5 0.5,14.828 0.5,14 L0.5,2 C0.5,1.172 1.171,0.5 2,0.5 L22,0.5 C22.829,0.5 23.5,1.172 23.5,2 L23.5,14 L23.5,14 Z" id="Stroke-140"></path>
                    <polygon id="Stroke-141" points="20.5 7.5 16.5 7.5 16.5 3.5 20.5 3.5"></polygon>
                    <path d="M4.5,4.5 L6.5,4.5" id="Stroke-142"></path>
                    <path d="M4.5,10.5 L13.5,10.5" id="Stroke-143"></path>
                    <path d="M4.5,12.5 L16.5,12.5" id="Stroke-144"></path>
                </g>
                <g id="icon" transform="translate(161.000000, 160.000000)" stroke="#EEEEEF">
                    <polygon id="Stroke-640" stroke-linecap="round" points="20.5 23.5 3.5 23.5 3.5 0.5 20.5 0.5"></polygon>
                    <path d="M3.5,0.5 L1.5,0.5 C0.95,0.5 0.5,0.95 0.5,1.5 L0.5,22.5 C0.5,23.05 0.95,23.5 1.5,23.5 L3.5,23.5" id="Stroke-641" stroke-linecap="round"></path>
                    <path d="M13,12 L13,13.5 L15.538,14.226 C16.067,14.377 16.5,14.95 16.5,15.5 L16.5,18.5 L6.5,18.5 L6.5,15.5 C6.5,14.95 6.933,14.377 7.461,14.226 L10,13.5 L10,12" id="Stroke-642"></path>
                    <path d="M14.5,9.2705 C14.5,11.0785 13.156,12.5425 11.5,12.5425 C9.843,12.5425 8.5,11.0785 8.5,9.2705 C8.5,7.4645 9.843,5.9995 11.5,5.9995 C13.156,5.9995 14.5,7.4645 14.5,9.2705 L14.5,9.2705 Z" id="Stroke-643"></path>
                    <path d="M14.4687,8.6758 C13.9687,9.1758 12.5387,9.1738 11.9997,8.1708 C10.9997,9.1708 9.3747,9.1708 8.5657,8.5998" id="Stroke-644"></path>
                    <path d="M20.5,2 L21.5,2 C22.6,2 23.5,2.9 23.5,4 L23.5,7 L20.5,7" id="Stroke-645"></path>
                    <polyline id="Stroke-646" points="20.5 7 23.5 7 23.5 12 20.5 12"></polyline>
                    <polyline id="Stroke-647" points="20.5 12 23.5 12 23.5 17 20.5 17"></polyline>
                    <path d="M20.5,17 L23.5,17 L23.5,20 C23.5,21.1 22.6,22 21.5,22 L20.5,22" id="Stroke-648"></path>
                </g>
            </g>
            <g id="icons-9" transform="translate(768.000000, 48.000000)">
                <g id="icon" transform="translate(79.000000, 82.000000)" stroke="#EEEEEF" stroke-linecap="round">
                    <path d="M23.5,16 C23.5,17.932 21.934,19.5 20,19.5 C18.066,19.5 16.5,17.932 16.5,16 C16.5,14.066 18.066,12.5 20,12.5 C21.934,12.5 23.5,14.066 23.5,16 L23.5,16 Z" id="Stroke-135"></path>
                    <path d="M23.5,4 C23.5,2.066 21.934,0.5 20,0.5 C18.066,0.5 16.5,2.066 16.5,4 C16.5,5.932 18.066,7.5 20,7.5 C21.934,7.5 23.5,5.932 23.5,4 L23.5,4 Z" id="Stroke-137"></path>
                    <path d="M16.5,16 C16.5,9.925 11.575,5 5.5,5 C4.375,5 1.336,5.371 0.5,5.998 L14.688,10 L0.5,14 C1.336,14.627 4.375,15 5.5,15 C11.575,15 16.5,10.075 16.5,4" id="Stroke-139"></path>
                </g>
                <g id="icon" transform="translate(80.000000, 1.000000)" stroke="#EEEEEF" stroke-linecap="round">
                    <path d="M5.5,16.5 L2.5,16.5 C1.4,16.5 0.5,15.6 0.5,14.5 L0.5,8.5 C0.5,7.4 1.4,6.5 2.5,6.5 L21.5,6.5 C22.601,6.5 23.5,7.4 23.5,8.5 L23.5,14.5 C23.5,15.6 22.601,16.5 21.5,16.5 L18.5,16.5" id="Stroke-693"></path>
                    <polyline id="Stroke-694" points="5.5 4.5 5.5 0.5 15.5 0.5 18.5 3.5 18.5 4.5"></polyline>
                    <polygon id="Stroke-695" points="18.5 21.5 5.5 21.5 5.5 13.5 18.5 13.5"></polygon>
                    <path d="M4.5,9.5 C4.5,10.052 4.053,10.5 3.5,10.5 C2.948,10.5 2.5,10.052 2.5,9.5 C2.5,8.947 2.948,8.5 3.5,8.5 C4.053,8.5 4.5,8.947 4.5,9.5 L4.5,9.5 Z" id="Stroke-696"></path>
                    <path d="M7.5,15.5 L16.5,15.5" id="Stroke-697"></path>
                    <path d="M7.5,17.5 L16.5,17.5" id="Stroke-698"></path>
                    <path d="M7.5,19.5 L16.5,19.5" id="Stroke-699"></path>
                    <polyline id="Stroke-700" points="15.5 0.5 15.5 3.5 18.5 3.5"></polyline>
                </g>
                <g id="icon" transform="translate(80.000000, 160.000000)" stroke="#EEEEEF" stroke-linecap="round">
                    <path d="M9.5,14.5 L0.5,23.5" id="Stroke-131"></path>
                    <polygon id="Stroke-133" points="21.5 9.5 23.5 7.5 16.5 0.5 14.5 2.5 15.5 3.5 10.5 8.5 6.5 8.5 5 10 14 19 15.5 17.5 15.5 13.5 20.5 8.5"></polygon>
                </g>
                <g id="icon" transform="translate(160.000000, 82.000000)" stroke-linecap="round" stroke="#EEEEEF">
                    <polyline id="Stroke-167" points="19 9.5 23.5 9.5 23.5 18.5 0.5 18.5 0.5 9.5 7 9.5"></polyline>
                    <polygon id="Stroke-168" points="13.1611 11.8804 8.2121 14.0004 10.3331 9.0504 19.1721 0.2124 22.0001 3.0404"></polygon>
                    <path d="M20.1641,4.876 L17.3361,2.048" id="Stroke-169"></path>
                    <path d="M13.1611,11.8804 L10.3331,9.0504" id="Stroke-170"></path>
                </g>
                <g id="icon" transform="translate(1.000000, 80.000000)" stroke="#EEEEEF" stroke-linecap="round">
                    <path d="M4,23.5 L16,23.5" id="Stroke-238"></path>
                    <path d="M4,23.5 L2,0.5" id="Stroke-239"></path>
                    <path d="M16,23.5 L18,0.5" id="Stroke-240"></path>
                    <path d="M0.5,0.5 L19.5,0.5" id="Stroke-241"></path>
                    <path d="M7,0.5 L8,23.5" id="Stroke-242"></path>
                    <path d="M13,0.5 L12,23.5" id="Stroke-243"></path>
                    <path d="M3.5,17.5 L16.5,17.5" id="Stroke-244"></path>
                    <path d="M3,11.5 L17,11.5" id="Stroke-245"></path>
                    <path d="M2.5,5.5 L17.5,5.5" id="Stroke-246"></path>
                </g>
                <g id="icon" transform="translate(162.000000, 0.000000)" stroke-linecap="round" stroke="#7782E4">
                    <polygon id="Stroke-364" points="10.5 7.0244 20.5 2.0244 20.5 17.5244 10.5 22.5244 0.5 17.5244 0.5 2.0244"></polygon>
                    <polyline id="Stroke-365" points="18.499 0.5 10.499 4.548 2.499 0.5"></polyline>
                    <path d="M10.5,7.0244 L10.5,22.5244" id="Stroke-366"></path>
                </g>
                <g id="icon" transform="translate(0.000000, 3.000000)" stroke-linecap="round" stroke="#F8584D">
                    <polygon id="Stroke-374" points="16.5 8.5 16.5 10.5 7.5 10.5 7.5 8.5 0.5 8.5 0.5 16.5 23.5 16.5 23.5 8.5"></polygon>
                    <path d="M9.5,8.5 L14.5,8.5" id="Stroke-375"></path>
                    <path d="M2.5,6.5 L21.5,6.5" id="Stroke-376"></path>
                    <path d="M2.5,4.5 L21.5,4.5" id="Stroke-377"></path>
                    <path d="M2.5,2.5 L21.5,2.5" id="Stroke-378"></path>
                    <path d="M2.5,0.5 L21.5,0.5" id="Stroke-379"></path>
                </g>
                <g id="icon" transform="translate(0.000000, 164.000000)" stroke="#EEEEEF" stroke-linecap="round">
                    <path d="M23.5,14 C23.5,14.828 22.829,15.5 22,15.5 L2,15.5 C1.171,15.5 0.5,14.828 0.5,14 L0.5,2 C0.5,1.172 1.171,0.5 2,0.5 L22,0.5 C22.829,0.5 23.5,1.172 23.5,2 L23.5,14 L23.5,14 Z" id="Stroke-140"></path>
                    <polygon id="Stroke-141" points="20.5 7.5 16.5 7.5 16.5 3.5 20.5 3.5"></polygon>
                    <path d="M4.5,4.5 L6.5,4.5" id="Stroke-142"></path>
                    <path d="M4.5,10.5 L13.5,10.5" id="Stroke-143"></path>
                    <path d="M4.5,12.5 L16.5,12.5" id="Stroke-144"></path>
                </g>
                <g id="icon" transform="translate(161.000000, 160.000000)" stroke="#EEEEEF">
                    <polygon id="Stroke-640" stroke-linecap="round" points="20.5 23.5 3.5 23.5 3.5 0.5 20.5 0.5"></polygon>
                    <path d="M3.5,0.5 L1.5,0.5 C0.95,0.5 0.5,0.95 0.5,1.5 L0.5,22.5 C0.5,23.05 0.95,23.5 1.5,23.5 L3.5,23.5" id="Stroke-641" stroke-linecap="round"></path>
                    <path d="M13,12 L13,13.5 L15.538,14.226 C16.067,14.377 16.5,14.95 16.5,15.5 L16.5,18.5 L6.5,18.5 L6.5,15.5 C6.5,14.95 6.933,14.377 7.461,14.226 L10,13.5 L10,12" id="Stroke-642"></path>
                    <path d="M14.5,9.2705 C14.5,11.0785 13.156,12.5425 11.5,12.5425 C9.843,12.5425 8.5,11.0785 8.5,9.2705 C8.5,7.4645 9.843,5.9995 11.5,5.9995 C13.156,5.9995 14.5,7.4645 14.5,9.2705 L14.5,9.2705 Z" id="Stroke-643"></path>
                    <path d="M14.4687,8.6758 C13.9687,9.1758 12.5387,9.1738 11.9997,8.1708 C10.9997,9.1708 9.3747,9.1708 8.5657,8.5998" id="Stroke-644"></path>
                    <path d="M20.5,2 L21.5,2 C22.6,2 23.5,2.9 23.5,4 L23.5,7 L20.5,7" id="Stroke-645"></path>
                    <polyline id="Stroke-646" points="20.5 7 23.5 7 23.5 12 20.5 12"></polyline>
                    <polyline id="Stroke-647" points="20.5 12 23.5 12 23.5 17 20.5 17"></polyline>
                    <path d="M20.5,17 L23.5,17 L23.5,20 C23.5,21.1 22.6,22 21.5,22 L20.5,22" id="Stroke-648"></path>
                </g>
            </g>
            <g id="icons-9" transform="translate(48.000000, 288.000000)">
                <g id="icon" transform="translate(79.000000, 82.000000)" stroke="#FEA437" stroke-linecap="round">
                    <path d="M23.5,16 C23.5,17.932 21.934,19.5 20,19.5 C18.066,19.5 16.5,17.932 16.5,16 C16.5,14.066 18.066,12.5 20,12.5 C21.934,12.5 23.5,14.066 23.5,16 L23.5,16 Z" id="Stroke-135"></path>
                    <path d="M23.5,4 C23.5,2.066 21.934,0.5 20,0.5 C18.066,0.5 16.5,2.066 16.5,4 C16.5,5.932 18.066,7.5 20,7.5 C21.934,7.5 23.5,5.932 23.5,4 L23.5,4 Z" id="Stroke-137"></path>
                    <path d="M16.5,16 C16.5,9.925 11.575,5 5.5,5 C4.375,5 1.336,5.371 0.5,5.998 L14.688,10 L0.5,14 C1.336,14.627 4.375,15 5.5,15 C11.575,15 16.5,10.075 16.5,4" id="Stroke-139"></path>
                </g>
                <g id="icon" transform="translate(80.000000, 1.000000)" stroke="#EEEEEF" stroke-linecap="round">
                    <path d="M5.5,16.5 L2.5,16.5 C1.4,16.5 0.5,15.6 0.5,14.5 L0.5,8.5 C0.5,7.4 1.4,6.5 2.5,6.5 L21.5,6.5 C22.601,6.5 23.5,7.4 23.5,8.5 L23.5,14.5 C23.5,15.6 22.601,16.5 21.5,16.5 L18.5,16.5" id="Stroke-693"></path>
                    <polyline id="Stroke-694" points="5.5 4.5 5.5 0.5 15.5 0.5 18.5 3.5 18.5 4.5"></polyline>
                    <polygon id="Stroke-695" points="18.5 21.5 5.5 21.5 5.5 13.5 18.5 13.5"></polygon>
                    <path d="M4.5,9.5 C4.5,10.052 4.053,10.5 3.5,10.5 C2.948,10.5 2.5,10.052 2.5,9.5 C2.5,8.947 2.948,8.5 3.5,8.5 C4.053,8.5 4.5,8.947 4.5,9.5 L4.5,9.5 Z" id="Stroke-696"></path>
                    <path d="M7.5,15.5 L16.5,15.5" id="Stroke-697"></path>
                    <path d="M7.5,17.5 L16.5,17.5" id="Stroke-698"></path>
                    <path d="M7.5,19.5 L16.5,19.5" id="Stroke-699"></path>
                    <polyline id="Stroke-700" points="15.5 0.5 15.5 3.5 18.5 3.5"></polyline>
                </g>
                <g id="icon" transform="translate(80.000000, 160.000000)" stroke="#EEEEEF" stroke-linecap="round">
                    <path d="M9.5,14.5 L0.5,23.5" id="Stroke-131"></path>
                    <polygon id="Stroke-133" points="21.5 9.5 23.5 7.5 16.5 0.5 14.5 2.5 15.5 3.5 10.5 8.5 6.5 8.5 5 10 14 19 15.5 17.5 15.5 13.5 20.5 8.5"></polygon>
                </g>
                <g id="icon" transform="translate(160.000000, 82.000000)" stroke-linecap="round" stroke="#EEEEEF">
                    <polyline id="Stroke-167" points="19 9.5 23.5 9.5 23.5 18.5 0.5 18.5 0.5 9.5 7 9.5"></polyline>
                    <polygon id="Stroke-168" points="13.1611 11.8804 8.2121 14.0004 10.3331 9.0504 19.1721 0.2124 22.0001 3.0404"></polygon>
                    <path d="M20.1641,4.876 L17.3361,2.048" id="Stroke-169"></path>
                    <path d="M13.1611,11.8804 L10.3331,9.0504" id="Stroke-170"></path>
                </g>
                <g id="icon" transform="translate(1.000000, 80.000000)" stroke="#EEEEEF" stroke-linecap="round">
                    <path d="M4,23.5 L16,23.5" id="Stroke-238"></path>
                    <path d="M4,23.5 L2,0.5" id="Stroke-239"></path>
                    <path d="M16,23.5 L18,0.5" id="Stroke-240"></path>
                    <path d="M0.5,0.5 L19.5,0.5" id="Stroke-241"></path>
                    <path d="M7,0.5 L8,23.5" id="Stroke-242"></path>
                    <path d="M13,0.5 L12,23.5" id="Stroke-243"></path>
                    <path d="M3.5,17.5 L16.5,17.5" id="Stroke-244"></path>
                    <path d="M3,11.5 L17,11.5" id="Stroke-245"></path>
                    <path d="M2.5,5.5 L17.5,5.5" id="Stroke-246"></path>
                </g>
                <g id="icon" transform="translate(162.000000, 0.000000)" stroke-linecap="round" stroke="#EEEEEF">
                    <polygon id="Stroke-364" points="10.5 7.0244 20.5 2.0244 20.5 17.5244 10.5 22.5244 0.5 17.5244 0.5 2.0244"></polygon>
                    <polyline id="Stroke-365" points="18.499 0.5 10.499 4.548 2.499 0.5"></polyline>
                    <path d="M10.5,7.0244 L10.5,22.5244" id="Stroke-366"></path>
                </g>
                <g id="icon" transform="translate(0.000000, 3.000000)" stroke-linecap="round" stroke="#7782E4">
                    <polygon id="Stroke-374" points="16.5 8.5 16.5 10.5 7.5 10.5 7.5 8.5 0.5 8.5 0.5 16.5 23.5 16.5 23.5 8.5"></polygon>
                    <path d="M9.5,8.5 L14.5,8.5" id="Stroke-375"></path>
                    <path d="M2.5,6.5 L21.5,6.5" id="Stroke-376"></path>
                    <path d="M2.5,4.5 L21.5,4.5" id="Stroke-377"></path>
                    <path d="M2.5,2.5 L21.5,2.5" id="Stroke-378"></path>
                    <path d="M2.5,0.5 L21.5,0.5" id="Stroke-379"></path>
                </g>
                <g id="icon" transform="translate(0.000000, 164.000000)" stroke="#EEEEEF" stroke-linecap="round">
                    <path d="M23.5,14 C23.5,14.828 22.829,15.5 22,15.5 L2,15.5 C1.171,15.5 0.5,14.828 0.5,14 L0.5,2 C0.5,1.172 1.171,0.5 2,0.5 L22,0.5 C22.829,0.5 23.5,1.172 23.5,2 L23.5,14 L23.5,14 Z" id="Stroke-140"></path>
                    <polygon id="Stroke-141" points="20.5 7.5 16.5 7.5 16.5 3.5 20.5 3.5"></polygon>
                    <path d="M4.5,4.5 L6.5,4.5" id="Stroke-142"></path>
                    <path d="M4.5,10.5 L13.5,10.5" id="Stroke-143"></path>
                    <path d="M4.5,12.5 L16.5,12.5" id="Stroke-144"></path>
                </g>
                <g id="icon" transform="translate(161.000000, 160.000000)" stroke="#EEEEEF">
                    <polygon id="Stroke-640" stroke-linecap="round" points="20.5 23.5 3.5 23.5 3.5 0.5 20.5 0.5"></polygon>
                    <path d="M3.5,0.5 L1.5,0.5 C0.95,0.5 0.5,0.95 0.5,1.5 L0.5,22.5 C0.5,23.05 0.95,23.5 1.5,23.5 L3.5,23.5" id="Stroke-641" stroke-linecap="round"></path>
                    <path d="M13,12 L13,13.5 L15.538,14.226 C16.067,14.377 16.5,14.95 16.5,15.5 L16.5,18.5 L6.5,18.5 L6.5,15.5 C6.5,14.95 6.933,14.377 7.461,14.226 L10,13.5 L10,12" id="Stroke-642"></path>
                    <path d="M14.5,9.2705 C14.5,11.0785 13.156,12.5425 11.5,12.5425 C9.843,12.5425 8.5,11.0785 8.5,9.2705 C8.5,7.4645 9.843,5.9995 11.5,5.9995 C13.156,5.9995 14.5,7.4645 14.5,9.2705 L14.5,9.2705 Z" id="Stroke-643"></path>
                    <path d="M14.4687,8.6758 C13.9687,9.1758 12.5387,9.1738 11.9997,8.1708 C10.9997,9.1708 9.3747,9.1708 8.5657,8.5998" id="Stroke-644"></path>
                    <path d="M20.5,2 L21.5,2 C22.6,2 23.5,2.9 23.5,4 L23.5,7 L20.5,7" id="Stroke-645"></path>
                    <polyline id="Stroke-646" points="20.5 7 23.5 7 23.5 12 20.5 12"></polyline>
                    <polyline id="Stroke-647" points="20.5 12 23.5 12 23.5 17 20.5 17"></polyline>
                    <path d="M20.5,17 L23.5,17 L23.5,20 C23.5,21.1 22.6,22 21.5,22 L20.5,22" id="Stroke-648"></path>
                </g>
            </g>
            <g id="icons-9" transform="translate(288.000000, 288.000000)">
                <g id="icon" transform="translate(79.000000, 82.000000)" stroke="#EEEEEF" stroke-linecap="round">
                    <path d="M23.5,16 C23.5,17.932 21.934,19.5 20,19.5 C18.066,19.5 16.5,17.932 16.5,16 C16.5,14.066 18.066,12.5 20,12.5 C21.934,12.5 23.5,14.066 23.5,16 L23.5,16 Z" id="Stroke-135"></path>
                    <path d="M23.5,4 C23.5,2.066 21.934,0.5 20,0.5 C18.066,0.5 16.5,2.066 16.5,4 C16.5,5.932 18.066,7.5 20,7.5 C21.934,7.5 23.5,5.932 23.5,4 L23.5,4 Z" id="Stroke-137"></path>
                    <path d="M16.5,16 C16.5,9.925 11.575,5 5.5,5 C4.375,5 1.336,5.371 0.5,5.998 L14.688,10 L0.5,14 C1.336,14.627 4.375,15 5.5,15 C11.575,15 16.5,10.075 16.5,4" id="Stroke-139"></path>
                </g>
                <g id="icon" transform="translate(80.000000, 1.000000)" stroke="#F8584D" stroke-linecap="round">
                    <path d="M5.5,16.5 L2.5,16.5 C1.4,16.5 0.5,15.6 0.5,14.5 L0.5,8.5 C0.5,7.4 1.4,6.5 2.5,6.5 L21.5,6.5 C22.601,6.5 23.5,7.4 23.5,8.5 L23.5,14.5 C23.5,15.6 22.601,16.5 21.5,16.5 L18.5,16.5" id="Stroke-693"></path>
                    <polyline id="Stroke-694" points="5.5 4.5 5.5 0.5 15.5 0.5 18.5 3.5 18.5 4.5"></polyline>
                    <polygon id="Stroke-695" points="18.5 21.5 5.5 21.5 5.5 13.5 18.5 13.5"></polygon>
                    <path d="M4.5,9.5 C4.5,10.052 4.053,10.5 3.5,10.5 C2.948,10.5 2.5,10.052 2.5,9.5 C2.5,8.947 2.948,8.5 3.5,8.5 C4.053,8.5 4.5,8.947 4.5,9.5 L4.5,9.5 Z" id="Stroke-696"></path>
                    <path d="M7.5,15.5 L16.5,15.5" id="Stroke-697"></path>
                    <path d="M7.5,17.5 L16.5,17.5" id="Stroke-698"></path>
                    <path d="M7.5,19.5 L16.5,19.5" id="Stroke-699"></path>
                    <polyline id="Stroke-700" points="15.5 0.5 15.5 3.5 18.5 3.5"></polyline>
                </g>
                <g id="icon" transform="translate(80.000000, 160.000000)" stroke="#EEEEEF" stroke-linecap="round">
                    <path d="M9.5,14.5 L0.5,23.5" id="Stroke-131"></path>
                    <polygon id="Stroke-133" points="21.5 9.5 23.5 7.5 16.5 0.5 14.5 2.5 15.5 3.5 10.5 8.5 6.5 8.5 5 10 14 19 15.5 17.5 15.5 13.5 20.5 8.5"></polygon>
                </g>
                <g id="icon" transform="translate(160.000000, 82.000000)" stroke-linecap="round" stroke="#EEEEEF">
                    <polyline id="Stroke-167" points="19 9.5 23.5 9.5 23.5 18.5 0.5 18.5 0.5 9.5 7 9.5"></polyline>
                    <polygon id="Stroke-168" points="13.1611 11.8804 8.2121 14.0004 10.3331 9.0504 19.1721 0.2124 22.0001 3.0404"></polygon>
                    <path d="M20.1641,4.876 L17.3361,2.048" id="Stroke-169"></path>
                    <path d="M13.1611,11.8804 L10.3331,9.0504" id="Stroke-170"></path>
                </g>
                <g id="icon" transform="translate(1.000000, 80.000000)" stroke="#EEEEEF" stroke-linecap="round">
                    <path d="M4,23.5 L16,23.5" id="Stroke-238"></path>
                    <path d="M4,23.5 L2,0.5" id="Stroke-239"></path>
                    <path d="M16,23.5 L18,0.5" id="Stroke-240"></path>
                    <path d="M0.5,0.5 L19.5,0.5" id="Stroke-241"></path>
                    <path d="M7,0.5 L8,23.5" id="Stroke-242"></path>
                    <path d="M13,0.5 L12,23.5" id="Stroke-243"></path>
                    <path d="M3.5,17.5 L16.5,17.5" id="Stroke-244"></path>
                    <path d="M3,11.5 L17,11.5" id="Stroke-245"></path>
                    <path d="M2.5,5.5 L17.5,5.5" id="Stroke-246"></path>
                </g>
                <g id="icon" transform="translate(162.000000, 0.000000)" stroke-linecap="round" stroke="#EEEEEF">
                    <polygon id="Stroke-364" points="10.5 7.0244 20.5 2.0244 20.5 17.5244 10.5 22.5244 0.5 17.5244 0.5 2.0244"></polygon>
                    <polyline id="Stroke-365" points="18.499 0.5 10.499 4.548 2.499 0.5"></polyline>
                    <path d="M10.5,7.0244 L10.5,22.5244" id="Stroke-366"></path>
                </g>
                <g id="icon" transform="translate(0.000000, 3.000000)" stroke-linecap="round" stroke="#EEEEEF">
                    <polygon id="Stroke-374" points="16.5 8.5 16.5 10.5 7.5 10.5 7.5 8.5 0.5 8.5 0.5 16.5 23.5 16.5 23.5 8.5"></polygon>
                    <path d="M9.5,8.5 L14.5,8.5" id="Stroke-375"></path>
                    <path d="M2.5,6.5 L21.5,6.5" id="Stroke-376"></path>
                    <path d="M2.5,4.5 L21.5,4.5" id="Stroke-377"></path>
                    <path d="M2.5,2.5 L21.5,2.5" id="Stroke-378"></path>
                    <path d="M2.5,0.5 L21.5,0.5" id="Stroke-379"></path>
                </g>
                <g id="icon" transform="translate(0.000000, 164.000000)" stroke="#7782E4" stroke-linecap="round">
                    <path d="M23.5,14 C23.5,14.828 22.829,15.5 22,15.5 L2,15.5 C1.171,15.5 0.5,14.828 0.5,14 L0.5,2 C0.5,1.172 1.171,0.5 2,0.5 L22,0.5 C22.829,0.5 23.5,1.172 23.5,2 L23.5,14 L23.5,14 Z" id="Stroke-140"></path>
                    <polygon id="Stroke-141" points="20.5 7.5 16.5 7.5 16.5 3.5 20.5 3.5"></polygon>
                    <path d="M4.5,4.5 L6.5,4.5" id="Stroke-142"></path>
                    <path d="M4.5,10.5 L13.5,10.5" id="Stroke-143"></path>
                    <path d="M4.5,12.5 L16.5,12.5" id="Stroke-144"></path>
                </g>
                <g id="icon" transform="translate(161.000000, 160.000000)" stroke="#EEEEEF">
                    <polygon id="Stroke-640" stroke-linecap="round" points="20.5 23.5 3.5 23.5 3.5 0.5 20.5 0.5"></polygon>
                    <path d="M3.5,0.5 L1.5,0.5 C0.95,0.5 0.5,0.95 0.5,1.5 L0.5,22.5 C0.5,23.05 0.95,23.5 1.5,23.5 L3.5,23.5" id="Stroke-641" stroke-linecap="round"></path>
                    <path d="M13,12 L13,13.5 L15.538,14.226 C16.067,14.377 16.5,14.95 16.5,15.5 L16.5,18.5 L6.5,18.5 L6.5,15.5 C6.5,14.95 6.933,14.377 7.461,14.226 L10,13.5 L10,12" id="Stroke-642"></path>
                    <path d="M14.5,9.2705 C14.5,11.0785 13.156,12.5425 11.5,12.5425 C9.843,12.5425 8.5,11.0785 8.5,9.2705 C8.5,7.4645 9.843,5.9995 11.5,5.9995 C13.156,5.9995 14.5,7.4645 14.5,9.2705 L14.5,9.2705 Z" id="Stroke-643"></path>
                    <path d="M14.4687,8.6758 C13.9687,9.1758 12.5387,9.1738 11.9997,8.1708 C10.9997,9.1708 9.3747,9.1708 8.5657,8.5998" id="Stroke-644"></path>
                    <path d="M20.5,2 L21.5,2 C22.6,2 23.5,2.9 23.5,4 L23.5,7 L20.5,7" id="Stroke-645"></path>
                    <polyline id="Stroke-646" points="20.5 7 23.5 7 23.5 12 20.5 12"></polyline>
                    <polyline id="Stroke-647" points="20.5 12 23.5 12 23.5 17 20.5 17"></polyline>
                    <path d="M20.5,17 L23.5,17 L23.5,20 C23.5,21.1 22.6,22 21.5,22 L20.5,22" id="Stroke-648"></path>
                </g>
            </g>
            <g id="icons-9" transform="translate(528.000000, 288.000000)">
                <g id="icon" transform="translate(79.000000, 82.000000)" stroke="#EEEEEF" stroke-linecap="round">
                    <path d="M23.5,16 C23.5,17.932 21.934,19.5 20,19.5 C18.066,19.5 16.5,17.932 16.5,16 C16.5,14.066 18.066,12.5 20,12.5 C21.934,12.5 23.5,14.066 23.5,16 L23.5,16 Z" id="Stroke-135"></path>
                    <path d="M23.5,4 C23.5,2.066 21.934,0.5 20,0.5 C18.066,0.5 16.5,2.066 16.5,4 C16.5,5.932 18.066,7.5 20,7.5 C21.934,7.5 23.5,5.932 23.5,4 L23.5,4 Z" id="Stroke-137"></path>
                    <path d="M16.5,16 C16.5,9.925 11.575,5 5.5,5 C4.375,5 1.336,5.371 0.5,5.998 L14.688,10 L0.5,14 C1.336,14.627 4.375,15 5.5,15 C11.575,15 16.5,10.075 16.5,4" id="Stroke-139"></path>
                </g>
                <g id="icon" transform="translate(80.000000, 1.000000)" stroke="#EEEEEF" stroke-linecap="round">
                    <path d="M5.5,16.5 L2.5,16.5 C1.4,16.5 0.5,15.6 0.5,14.5 L0.5,8.5 C0.5,7.4 1.4,6.5 2.5,6.5 L21.5,6.5 C22.601,6.5 23.5,7.4 23.5,8.5 L23.5,14.5 C23.5,15.6 22.601,16.5 21.5,16.5 L18.5,16.5" id="Stroke-693"></path>
                    <polyline id="Stroke-694" points="5.5 4.5 5.5 0.5 15.5 0.5 18.5 3.5 18.5 4.5"></polyline>
                    <polygon id="Stroke-695" points="18.5 21.5 5.5 21.5 5.5 13.5 18.5 13.5"></polygon>
                    <path d="M4.5,9.5 C4.5,10.052 4.053,10.5 3.5,10.5 C2.948,10.5 2.5,10.052 2.5,9.5 C2.5,8.947 2.948,8.5 3.5,8.5 C4.053,8.5 4.5,8.947 4.5,9.5 L4.5,9.5 Z" id="Stroke-696"></path>
                    <path d="M7.5,15.5 L16.5,15.5" id="Stroke-697"></path>
                    <path d="M7.5,17.5 L16.5,17.5" id="Stroke-698"></path>
                    <path d="M7.5,19.5 L16.5,19.5" id="Stroke-699"></path>
                    <polyline id="Stroke-700" points="15.5 0.5 15.5 3.5 18.5 3.5"></polyline>
                </g>
                <g id="icon" transform="translate(80.000000, 160.000000)" stroke="#F8584D" stroke-linecap="round">
                    <path d="M9.5,14.5 L0.5,23.5" id="Stroke-131"></path>
                    <polygon id="Stroke-133" points="21.5 9.5 23.5 7.5 16.5 0.5 14.5 2.5 15.5 3.5 10.5 8.5 6.5 8.5 5 10 14 19 15.5 17.5 15.5 13.5 20.5 8.5"></polygon>
                </g>
                <g id="icon" transform="translate(160.000000, 82.000000)" stroke-linecap="round" stroke="#EEEEEF">
                    <polyline id="Stroke-167" points="19 9.5 23.5 9.5 23.5 18.5 0.5 18.5 0.5 9.5 7 9.5"></polyline>
                    <polygon id="Stroke-168" points="13.1611 11.8804 8.2121 14.0004 10.3331 9.0504 19.1721 0.2124 22.0001 3.0404"></polygon>
                    <path d="M20.1641,4.876 L17.3361,2.048" id="Stroke-169"></path>
                    <path d="M13.1611,11.8804 L10.3331,9.0504" id="Stroke-170"></path>
                </g>
                <g id="icon" transform="translate(1.000000, 80.000000)" stroke="#EEEEEF" stroke-linecap="round">
                    <path d="M4,23.5 L16,23.5" id="Stroke-238"></path>
                    <path d="M4,23.5 L2,0.5" id="Stroke-239"></path>
                    <path d="M16,23.5 L18,0.5" id="Stroke-240"></path>
                    <path d="M0.5,0.5 L19.5,0.5" id="Stroke-241"></path>
                    <path d="M7,0.5 L8,23.5" id="Stroke-242"></path>
                    <path d="M13,0.5 L12,23.5" id="Stroke-243"></path>
                    <path d="M3.5,17.5 L16.5,17.5" id="Stroke-244"></path>
                    <path d="M3,11.5 L17,11.5" id="Stroke-245"></path>
                    <path d="M2.5,5.5 L17.5,5.5" id="Stroke-246"></path>
                </g>
                <g id="icon" transform="translate(162.000000, 0.000000)" stroke-linecap="round" stroke="#EEEEEF">
                    <polygon id="Stroke-364" points="10.5 7.0244 20.5 2.0244 20.5 17.5244 10.5 22.5244 0.5 17.5244 0.5 2.0244"></polygon>
                    <polyline id="Stroke-365" points="18.499 0.5 10.499 4.548 2.499 0.5"></polyline>
                    <path d="M10.5,7.0244 L10.5,22.5244" id="Stroke-366"></path>
                </g>
                <g id="icon" transform="translate(0.000000, 3.000000)" stroke-linecap="round" stroke="#EEEEEF">
                    <polygon id="Stroke-374" points="16.5 8.5 16.5 10.5 7.5 10.5 7.5 8.5 0.5 8.5 0.5 16.5 23.5 16.5 23.5 8.5"></polygon>
                    <path d="M9.5,8.5 L14.5,8.5" id="Stroke-375"></path>
                    <path d="M2.5,6.5 L21.5,6.5" id="Stroke-376"></path>
                    <path d="M2.5,4.5 L21.5,4.5" id="Stroke-377"></path>
                    <path d="M2.5,2.5 L21.5,2.5" id="Stroke-378"></path>
                    <path d="M2.5,0.5 L21.5,0.5" id="Stroke-379"></path>
                </g>
                <g id="icon" transform="translate(0.000000, 164.000000)" stroke="#EEEEEF" stroke-linecap="round">
                    <path d="M23.5,14 C23.5,14.828 22.829,15.5 22,15.5 L2,15.5 C1.171,15.5 0.5,14.828 0.5,14 L0.5,2 C0.5,1.172 1.171,0.5 2,0.5 L22,0.5 C22.829,0.5 23.5,1.172 23.5,2 L23.5,14 L23.5,14 Z" id="Stroke-140"></path>
                    <polygon id="Stroke-141" points="20.5 7.5 16.5 7.5 16.5 3.5 20.5 3.5"></polygon>
                    <path d="M4.5,4.5 L6.5,4.5" id="Stroke-142"></path>
                    <path d="M4.5,10.5 L13.5,10.5" id="Stroke-143"></path>
                    <path d="M4.5,12.5 L16.5,12.5" id="Stroke-144"></path>
                </g>
                <g id="icon" transform="translate(161.000000, 160.000000)" stroke="#EEEEEF">
                    <polygon id="Stroke-640" stroke-linecap="round" points="20.5 23.5 3.5 23.5 3.5 0.5 20.5 0.5"></polygon>
                    <path d="M3.5,0.5 L1.5,0.5 C0.95,0.5 0.5,0.95 0.5,1.5 L0.5,22.5 C0.5,23.05 0.95,23.5 1.5,23.5 L3.5,23.5" id="Stroke-641" stroke-linecap="round"></path>
                    <path d="M13,12 L13,13.5 L15.538,14.226 C16.067,14.377 16.5,14.95 16.5,15.5 L16.5,18.5 L6.5,18.5 L6.5,15.5 C6.5,14.95 6.933,14.377 7.461,14.226 L10,13.5 L10,12" id="Stroke-642"></path>
                    <path d="M14.5,9.2705 C14.5,11.0785 13.156,12.5425 11.5,12.5425 C9.843,12.5425 8.5,11.0785 8.5,9.2705 C8.5,7.4645 9.843,5.9995 11.5,5.9995 C13.156,5.9995 14.5,7.4645 14.5,9.2705 L14.5,9.2705 Z" id="Stroke-643"></path>
                    <path d="M14.4687,8.6758 C13.9687,9.1758 12.5387,9.1738 11.9997,8.1708 C10.9997,9.1708 9.3747,9.1708 8.5657,8.5998" id="Stroke-644"></path>
                    <path d="M20.5,2 L21.5,2 C22.6,2 23.5,2.9 23.5,4 L23.5,7 L20.5,7" id="Stroke-645"></path>
                    <polyline id="Stroke-646" points="20.5 7 23.5 7 23.5 12 20.5 12"></polyline>
                    <polyline id="Stroke-647" points="20.5 12 23.5 12 23.5 17 20.5 17"></polyline>
                    <path d="M20.5,17 L23.5,17 L23.5,20 C23.5,21.1 22.6,22 21.5,22 L20.5,22" id="Stroke-648"></path>
                </g>
            </g>
            <g id="icons-9" transform="translate(768.000000, 288.000000)">
                <g id="icon" transform="translate(79.000000, 82.000000)" stroke="#7782E4" stroke-linecap="round">
                    <path d="M23.5,16 C23.5,17.932 21.934,19.5 20,19.5 C18.066,19.5 16.5,17.932 16.5,16 C16.5,14.066 18.066,12.5 20,12.5 C21.934,12.5 23.5,14.066 23.5,16 L23.5,16 Z" id="Stroke-135"></path>
                    <path d="M23.5,4 C23.5,2.066 21.934,0.5 20,0.5 C18.066,0.5 16.5,2.066 16.5,4 C16.5,5.932 18.066,7.5 20,7.5 C21.934,7.5 23.5,5.932 23.5,4 L23.5,4 Z" id="Stroke-137"></path>
                    <path d="M16.5,16 C16.5,9.925 11.575,5 5.5,5 C4.375,5 1.336,5.371 0.5,5.998 L14.688,10 L0.5,14 C1.336,14.627 4.375,15 5.5,15 C11.575,15 16.5,10.075 16.5,4" id="Stroke-139"></path>
                </g>
                <g id="icon" transform="translate(80.000000, 1.000000)" stroke="#EEEEEF" stroke-linecap="round">
                    <path d="M5.5,16.5 L2.5,16.5 C1.4,16.5 0.5,15.6 0.5,14.5 L0.5,8.5 C0.5,7.4 1.4,6.5 2.5,6.5 L21.5,6.5 C22.601,6.5 23.5,7.4 23.5,8.5 L23.5,14.5 C23.5,15.6 22.601,16.5 21.5,16.5 L18.5,16.5" id="Stroke-693"></path>
                    <polyline id="Stroke-694" points="5.5 4.5 5.5 0.5 15.5 0.5 18.5 3.5 18.5 4.5"></polyline>
                    <polygon id="Stroke-695" points="18.5 21.5 5.5 21.5 5.5 13.5 18.5 13.5"></polygon>
                    <path d="M4.5,9.5 C4.5,10.052 4.053,10.5 3.5,10.5 C2.948,10.5 2.5,10.052 2.5,9.5 C2.5,8.947 2.948,8.5 3.5,8.5 C4.053,8.5 4.5,8.947 4.5,9.5 L4.5,9.5 Z" id="Stroke-696"></path>
                    <path d="M7.5,15.5 L16.5,15.5" id="Stroke-697"></path>
                    <path d="M7.5,17.5 L16.5,17.5" id="Stroke-698"></path>
                    <path d="M7.5,19.5 L16.5,19.5" id="Stroke-699"></path>
                    <polyline id="Stroke-700" points="15.5 0.5 15.5 3.5 18.5 3.5"></polyline>
                </g>
                <g id="icon" transform="translate(80.000000, 160.000000)" stroke="#EEEEEF" stroke-linecap="round">
                    <path d="M9.5,14.5 L0.5,23.5" id="Stroke-131"></path>
                    <polygon id="Stroke-133" points="21.5 9.5 23.5 7.5 16.5 0.5 14.5 2.5 15.5 3.5 10.5 8.5 6.5 8.5 5 10 14 19 15.5 17.5 15.5 13.5 20.5 8.5"></polygon>
                </g>
                <g id="icon" transform="translate(160.000000, 82.000000)" stroke-linecap="round" stroke="#EEEEEF">
                    <polyline id="Stroke-167" points="19 9.5 23.5 9.5 23.5 18.5 0.5 18.5 0.5 9.5 7 9.5"></polyline>
                    <polygon id="Stroke-168" points="13.1611 11.8804 8.2121 14.0004 10.3331 9.0504 19.1721 0.2124 22.0001 3.0404"></polygon>
                    <path d="M20.1641,4.876 L17.3361,2.048" id="Stroke-169"></path>
                    <path d="M13.1611,11.8804 L10.3331,9.0504" id="Stroke-170"></path>
                </g>
                <g id="icon" transform="translate(1.000000, 80.000000)" stroke="#EEEEEF" stroke-linecap="round">
                    <path d="M4,23.5 L16,23.5" id="Stroke-238"></path>
                    <path d="M4,23.5 L2,0.5" id="Stroke-239"></path>
                    <path d="M16,23.5 L18,0.5" id="Stroke-240"></path>
                    <path d="M0.5,0.5 L19.5,0.5" id="Stroke-241"></path>
                    <path d="M7,0.5 L8,23.5" id="Stroke-242"></path>
                    <path d="M13,0.5 L12,23.5" id="Stroke-243"></path>
                    <path d="M3.5,17.5 L16.5,17.5" id="Stroke-244"></path>
                    <path d="M3,11.5 L17,11.5" id="Stroke-245"></path>
                    <path d="M2.5,5.5 L17.5,5.5" id="Stroke-246"></path>
                </g>
                <g id="icon" transform="translate(162.000000, 0.000000)" stroke-linecap="round" stroke="#EEEEEF">
                    <polygon id="Stroke-364" points="10.5 7.0244 20.5 2.0244 20.5 17.5244 10.5 22.5244 0.5 17.5244 0.5 2.0244"></polygon>
                    <polyline id="Stroke-365" points="18.499 0.5 10.499 4.548 2.499 0.5"></polyline>
                    <path d="M10.5,7.0244 L10.5,22.5244" id="Stroke-366"></path>
                </g>
                <g id="icon" transform="translate(0.000000, 3.000000)" stroke-linecap="round" stroke="#EEEEEF">
                    <polygon id="Stroke-374" points="16.5 8.5 16.5 10.5 7.5 10.5 7.5 8.5 0.5 8.5 0.5 16.5 23.5 16.5 23.5 8.5"></polygon>
                    <path d="M9.5,8.5 L14.5,8.5" id="Stroke-375"></path>
                    <path d="M2.5,6.5 L21.5,6.5" id="Stroke-376"></path>
                    <path d="M2.5,4.5 L21.5,4.5" id="Stroke-377"></path>
                    <path d="M2.5,2.5 L21.5,2.5" id="Stroke-378"></path>
                    <path d="M2.5,0.5 L21.5,0.5" id="Stroke-379"></path>
                </g>
                <g id="icon" transform="translate(0.000000, 164.000000)" stroke="#EEEEEF" stroke-linecap="round">
                    <path d="M23.5,14 C23.5,14.828 22.829,15.5 22,15.5 L2,15.5 C1.171,15.5 0.5,14.828 0.5,14 L0.5,2 C0.5,1.172 1.171,0.5 2,0.5 L22,0.5 C22.829,0.5 23.5,1.172 23.5,2 L23.5,14 L23.5,14 Z" id="Stroke-140"></path>
                    <polygon id="Stroke-141" points="20.5 7.5 16.5 7.5 16.5 3.5 20.5 3.5"></polygon>
                    <path d="M4.5,4.5 L6.5,4.5" id="Stroke-142"></path>
                    <path d="M4.5,10.5 L13.5,10.5" id="Stroke-143"></path>
                    <path d="M4.5,12.5 L16.5,12.5" id="Stroke-144"></path>
                </g>
                <g id="icon" transform="translate(161.000000, 160.000000)" stroke="#FEA437">
                    <polygon id="Stroke-640" stroke-linecap="round" points="20.5 23.5 3.5 23.5 3.5 0.5 20.5 0.5"></polygon>
                    <path d="M3.5,0.5 L1.5,0.5 C0.95,0.5 0.5,0.95 0.5,1.5 L0.5,22.5 C0.5,23.05 0.95,23.5 1.5,23.5 L3.5,23.5" id="Stroke-641" stroke-linecap="round"></path>
                    <path d="M13,12 L13,13.5 L15.538,14.226 C16.067,14.377 16.5,14.95 16.5,15.5 L16.5,18.5 L6.5,18.5 L6.5,15.5 C6.5,14.95 6.933,14.377 7.461,14.226 L10,13.5 L10,12" id="Stroke-642"></path>
                    <path d="M14.5,9.2705 C14.5,11.0785 13.156,12.5425 11.5,12.5425 C9.843,12.5425 8.5,11.0785 8.5,9.2705 C8.5,7.4645 9.843,5.9995 11.5,5.9995 C13.156,5.9995 14.5,7.4645 14.5,9.2705 L14.5,9.2705 Z" id="Stroke-643"></path>
                    <path d="M14.4687,8.6758 C13.9687,9.1758 12.5387,9.1738 11.9997,8.1708 C10.9997,9.1708 9.3747,9.1708 8.5657,8.5998" id="Stroke-644"></path>
                    <path d="M20.5,2 L21.5,2 C22.6,2 23.5,2.9 23.5,4 L23.5,7 L20.5,7" id="Stroke-645"></path>
                    <polyline id="Stroke-646" points="20.5 7 23.5 7 23.5 12 20.5 12"></polyline>
                    <polyline id="Stroke-647" points="20.5 12 23.5 12 23.5 17 20.5 17"></polyline>
                    <path d="M20.5,17 L23.5,17 L23.5,20 C23.5,21.1 22.6,22 21.5,22 L20.5,22" id="Stroke-648"></path>
                </g>
            </g>
        </g>
    </g>
</svg>