<?xml version="1.0" encoding="UTF-8" standalone="no"?>
<svg width="960px" height="480px" viewBox="0 0 960 480" version="1.1" xmlns="http://www.w3.org/2000/svg" xmlns:xlink="http://www.w3.org/1999/xlink">
    <!-- Generator: Sketch 39.1 (31720) - http://www.bohemiancoding.com/sketch -->
    <title>010-background</title>
    <desc>Created with Sketch.</desc>
    <defs></defs>
    <g id="001" stroke="none" stroke-width="1" fill="none" fill-rule="evenodd">
        <g id="010-background">
            <g id="set">
                <rect id="Rectangle-5" fill="#2A4FA0" x="0" y="0" width="40" height="40"></rect>
                <rect id="Rectangle-5" fill="#6F4D9E" x="40" y="0" width="40" height="40"></rect>
                <rect id="Rectangle-5" fill="#C65BA1" x="80" y="0" width="40" height="40"></rect>
                <rect id="Rectangle-5" fill="#ED6DA7" x="120" y="0" width="40" height="40"></rect>
                <rect id="Rectangle-5" fill="#0085B6" x="0" y="40" width="40" height="40"></rect>
                <rect id="Rectangle-5" fill="#8283B3" x="40" y="40" width="40" height="40"></rect>
                <rect id="Rectangle-5" fill="#C4A2BC" x="80" y="40" width="40" height="40"></rect>
                <rect id="Rectangle-5" fill="#F4A0B5" x="120" y="40" width="40" height="40"></rect>
                <rect id="Rectangle-5" fill="#00BCB4" x="0" y="80" width="40" height="40"></rect>
                <rect id="Rectangle-5" fill="#77C6AA" x="40" y="80" width="40" height="40"></rect>
                <rect id="Rectangle-5" fill="#C0DCB3" x="80" y="80" width="40" height="40"></rect>
                <rect id="Rectangle-5" fill="#FAF3B9" x="120" y="80" width="40" height="40"></rect>
            </g>
            <g id="set" transform="translate(160.000000, 0.000000)">
                <rect id="Rectangle-5" fill="#2A4FA0" x="0" y="0" width="40" height="40"></rect>
                <rect id="Rectangle-5" fill="#6F4D9E" x="40" y="0" width="40" height="40"></rect>
                <rect id="Rectangle-5" fill="#C65BA1" x="80" y="0" width="40" height="40"></rect>
                <rect id="Rectangle-5" fill="#ED6DA7" x="120" y="0" width="40" height="40"></rect>
                <rect id="Rectangle-5" fill="#0085B6" x="0" y="40" width="40" height="40"></rect>
                <rect id="Rectangle-5" fill="#8283B3" x="40" y="40" width="40" height="40"></rect>
                <rect id="Rectangle-5" fill="#C4A2BC" x="80" y="40" width="40" height="40"></rect>
                <rect id="Rectangle-5" fill="#F4A0B5" x="120" y="40" width="40" height="40"></rect>
                <rect id="Rectangle-5" fill="#00BCB4" x="0" y="80" width="40" height="40"></rect>
                <rect id="Rectangle-5" fill="#77C6AA" x="40" y="80" width="40" height="40"></rect>
                <rect id="Rectangle-5" fill="#C0DCB3" x="80" y="80" width="40" height="40"></rect>
                <rect id="Rectangle-5" fill="#FAF3B9" x="120" y="80" width="40" height="40"></rect>
            </g>
            <g id="set" transform="translate(320.000000, 0.000000)">
                <rect id="Rectangle-5" fill="#2A4FA0" x="0" y="0" width="40" height="40"></rect>
                <rect id="Rectangle-5" fill="#6F4D9E" x="40" y="0" width="40" height="40"></rect>
                <rect id="Rectangle-5" fill="#C65BA1" x="80" y="0" width="40" height="40"></rect>
                <rect id="Rectangle-5" fill="#ED6DA7" x="120" y="0" width="40" height="40"></rect>
                <rect id="Rectangle-5" fill="#0085B6" x="0" y="40" width="40" height="40"></rect>
                <rect id="Rectangle-5" fill="#8283B3" x="40" y="40" width="40" height="40"></rect>
                <rect id="Rectangle-5" fill="#C4A2BC" x="80" y="40" width="40" height="40"></rect>
                <rect id="Rectangle-5" fill="#F4A0B5" x="120" y="40" width="40" height="40"></rect>
                <rect id="Rectangle-5" fill="#00BCB4" x="0" y="80" width="40" height="40"></rect>
                <rect id="Rectangle-5" fill="#77C6AA" x="40" y="80" width="40" height="40"></rect>
                <rect id="Rectangle-5" fill="#C0DCB3" x="80" y="80" width="40" height="40"></rect>
                <rect id="Rectangle-5" fill="#FAF3B9" x="120" y="80" width="40" height="40"></rect>
            </g>
            <g id="set" transform="translate(480.000000, 0.000000)">
                <rect id="Rectangle-5" fill="#2A4FA0" x="0" y="0" width="40" height="40"></rect>
                <rect id="Rectangle-5" fill="#6F4D9E" x="40" y="0" width="40" height="40"></rect>
                <rect id="Rectangle-5" fill="#C65BA1" x="80" y="0" width="40" height="40"></rect>
                <rect id="Rectangle-5" fill="#ED6DA7" x="120" y="0" width="40" height="40"></rect>
                <rect id="Rectangle-5" fill="#0085B6" x="0" y="40" width="40" height="40"></rect>
                <rect id="Rectangle-5" fill="#8283B3" x="40" y="40" width="40" height="40"></rect>
                <rect id="Rectangle-5" fill="#C4A2BC" x="80" y="40" width="40" height="40"></rect>
                <rect id="Rectangle-5" fill="#F4A0B5" x="120" y="40" width="40" height="40"></rect>
                <rect id="Rectangle-5" fill="#00BCB4" x="0" y="80" width="40" height="40"></rect>
                <rect id="Rectangle-5" fill="#77C6AA" x="40" y="80" width="40" height="40"></rect>
                <rect id="Rectangle-5" fill="#C0DCB3" x="80" y="80" width="40" height="40"></rect>
                <rect id="Rectangle-5" fill="#FAF3B9" x="120" y="80" width="40" height="40"></rect>
            </g>
            <g id="set" transform="translate(640.000000, 0.000000)">
                <rect id="Rectangle-5" fill="#2A4FA0" x="0" y="0" width="40" height="40"></rect>
                <rect id="Rectangle-5" fill="#6F4D9E" x="40" y="0" width="40" height="40"></rect>
                <rect id="Rectangle-5" fill="#C65BA1" x="80" y="0" width="40" height="40"></rect>
                <rect id="Rectangle-5" fill="#ED6DA7" x="120" y="0" width="40" height="40"></rect>
                <rect id="Rectangle-5" fill="#0085B6" x="0" y="40" width="40" height="40"></rect>
                <rect id="Rectangle-5" fill="#8283B3" x="40" y="40" width="40" height="40"></rect>
                <rect id="Rectangle-5" fill="#C4A2BC" x="80" y="40" width="40" height="40"></rect>
                <rect id="Rectangle-5" fill="#F4A0B5" x="120" y="40" width="40" height="40"></rect>
                <rect id="Rectangle-5" fill="#00BCB4" x="0" y="80" width="40" height="40"></rect>
                <rect id="Rectangle-5" fill="#77C6AA" x="40" y="80" width="40" height="40"></rect>
                <rect id="Rectangle-5" fill="#C0DCB3" x="80" y="80" width="40" height="40"></rect>
                <rect id="Rectangle-5" fill="#FAF3B9" x="120" y="80" width="40" height="40"></rect>
            </g>
            <g id="set" transform="translate(800.000000, 0.000000)">
                <rect id="Rectangle-5" fill="#2A4FA0" x="0" y="0" width="40" height="40"></rect>
                <rect id="Rectangle-5" fill="#6F4D9E" x="40" y="0" width="40" height="40"></rect>
                <rect id="Rectangle-5" fill="#C65BA1" x="80" y="0" width="40" height="40"></rect>
                <rect id="Rectangle-5" fill="#ED6DA7" x="120" y="0" width="40" height="40"></rect>
                <rect id="Rectangle-5" fill="#0085B6" x="0" y="40" width="40" height="40"></rect>
                <rect id="Rectangle-5" fill="#8283B3" x="40" y="40" width="40" height="40"></rect>
                <rect id="Rectangle-5" fill="#C4A2BC" x="80" y="40" width="40" height="40"></rect>
                <rect id="Rectangle-5" fill="#F4A0B5" x="120" y="40" width="40" height="40"></rect>
                <rect id="Rectangle-5" fill="#00BCB4" x="0" y="80" width="40" height="40"></rect>
                <rect id="Rectangle-5" fill="#77C6AA" x="40" y="80" width="40" height="40"></rect>
                <rect id="Rectangle-5" fill="#C0DCB3" x="80" y="80" width="40" height="40"></rect>
                <rect id="Rectangle-5" fill="#FAF3B9" x="120" y="80" width="40" height="40"></rect>
            </g>
            <g id="set" transform="translate(0.000000, 120.000000)">
                <rect id="Rectangle-5" fill="#2A4FA0" x="0" y="0" width="40" height="40"></rect>
                <rect id="Rectangle-5" fill="#6F4D9E" x="40" y="0" width="40" height="40"></rect>
                <rect id="Rectangle-5" fill="#C65BA1" x="80" y="0" width="40" height="40"></rect>
                <rect id="Rectangle-5" fill="#ED6DA7" x="120" y="0" width="40" height="40"></rect>
                <rect id="Rectangle-5" fill="#0085B6" x="0" y="40" width="40" height="40"></rect>
                <rect id="Rectangle-5" fill="#8283B3" x="40" y="40" width="40" height="40"></rect>
                <rect id="Rectangle-5" fill="#C4A2BC" x="80" y="40" width="40" height="40"></rect>
                <rect id="Rectangle-5" fill="#F4A0B5" x="120" y="40" width="40" height="40"></rect>
                <rect id="Rectangle-5" fill="#00BCB4" x="0" y="80" width="40" height="40"></rect>
                <rect id="Rectangle-5" fill="#77C6AA" x="40" y="80" width="40" height="40"></rect>
                <rect id="Rectangle-5" fill="#C0DCB3" x="80" y="80" width="40" height="40"></rect>
                <rect id="Rectangle-5" fill="#FAF3B9" x="120" y="80" width="40" height="40"></rect>
            </g>
            <g id="set" transform="translate(160.000000, 120.000000)">
                <rect id="Rectangle-5" fill="#2A4FA0" x="0" y="0" width="40" height="40"></rect>
                <rect id="Rectangle-5" fill="#6F4D9E" x="40" y="0" width="40" height="40"></rect>
                <rect id="Rectangle-5" fill="#C65BA1" x="80" y="0" width="40" height="40"></rect>
                <rect id="Rectangle-5" fill="#ED6DA7" x="120" y="0" width="40" height="40"></rect>
                <rect id="Rectangle-5" fill="#0085B6" x="0" y="40" width="40" height="40"></rect>
                <rect id="Rectangle-5" fill="#8283B3" x="40" y="40" width="40" height="40"></rect>
                <rect id="Rectangle-5" fill="#C4A2BC" x="80" y="40" width="40" height="40"></rect>
                <rect id="Rectangle-5" fill="#F4A0B5" x="120" y="40" width="40" height="40"></rect>
                <rect id="Rectangle-5" fill="#00BCB4" x="0" y="80" width="40" height="40"></rect>
                <rect id="Rectangle-5" fill="#77C6AA" x="40" y="80" width="40" height="40"></rect>
                <rect id="Rectangle-5" fill="#C0DCB3" x="80" y="80" width="40" height="40"></rect>
                <rect id="Rectangle-5" fill="#FAF3B9" x="120" y="80" width="40" height="40"></rect>
            </g>
            <g id="set" transform="translate(320.000000, 120.000000)">
                <rect id="Rectangle-5" fill="#2A4FA0" x="0" y="0" width="40" height="40"></rect>
                <rect id="Rectangle-5" fill="#6F4D9E" x="40" y="0" width="40" height="40"></rect>
                <rect id="Rectangle-5" fill="#C65BA1" x="80" y="0" width="40" height="40"></rect>
                <rect id="Rectangle-5" fill="#ED6DA7" x="120" y="0" width="40" height="40"></rect>
                <rect id="Rectangle-5" fill="#0085B6" x="0" y="40" width="40" height="40"></rect>
                <rect id="Rectangle-5" fill="#8283B3" x="40" y="40" width="40" height="40"></rect>
                <rect id="Rectangle-5" fill="#C4A2BC" x="80" y="40" width="40" height="40"></rect>
                <rect id="Rectangle-5" fill="#F4A0B5" x="120" y="40" width="40" height="40"></rect>
                <rect id="Rectangle-5" fill="#00BCB4" x="0" y="80" width="40" height="40"></rect>
                <rect id="Rectangle-5" fill="#77C6AA" x="40" y="80" width="40" height="40"></rect>
                <rect id="Rectangle-5" fill="#C0DCB3" x="80" y="80" width="40" height="40"></rect>
                <rect id="Rectangle-5" fill="#FAF3B9" x="120" y="80" width="40" height="40"></rect>
            </g>
            <g id="set" transform="translate(480.000000, 120.000000)">
                <rect id="Rectangle-5" fill="#2A4FA0" x="0" y="0" width="40" height="40"></rect>
                <rect id="Rectangle-5" fill="#6F4D9E" x="40" y="0" width="40" height="40"></rect>
                <rect id="Rectangle-5" fill="#C65BA1" x="80" y="0" width="40" height="40"></rect>
                <rect id="Rectangle-5" fill="#ED6DA7" x="120" y="0" width="40" height="40"></rect>
                <rect id="Rectangle-5" fill="#0085B6" x="0" y="40" width="40" height="40"></rect>
                <rect id="Rectangle-5" fill="#8283B3" x="40" y="40" width="40" height="40"></rect>
                <rect id="Rectangle-5" fill="#C4A2BC" x="80" y="40" width="40" height="40"></rect>
                <rect id="Rectangle-5" fill="#F4A0B5" x="120" y="40" width="40" height="40"></rect>
                <rect id="Rectangle-5" fill="#00BCB4" x="0" y="80" width="40" height="40"></rect>
                <rect id="Rectangle-5" fill="#77C6AA" x="40" y="80" width="40" height="40"></rect>
                <rect id="Rectangle-5" fill="#C0DCB3" x="80" y="80" width="40" height="40"></rect>
                <rect id="Rectangle-5" fill="#FAF3B9" x="120" y="80" width="40" height="40"></rect>
            </g>
            <g id="set" transform="translate(640.000000, 120.000000)">
                <rect id="Rectangle-5" fill="#2A4FA0" x="0" y="0" width="40" height="40"></rect>
                <rect id="Rectangle-5" fill="#6F4D9E" x="40" y="0" width="40" height="40"></rect>
                <rect id="Rectangle-5" fill="#C65BA1" x="80" y="0" width="40" height="40"></rect>
                <rect id="Rectangle-5" fill="#ED6DA7" x="120" y="0" width="40" height="40"></rect>
                <rect id="Rectangle-5" fill="#0085B6" x="0" y="40" width="40" height="40"></rect>
                <rect id="Rectangle-5" fill="#8283B3" x="40" y="40" width="40" height="40"></rect>
                <rect id="Rectangle-5" fill="#C4A2BC" x="80" y="40" width="40" height="40"></rect>
                <rect id="Rectangle-5" fill="#F4A0B5" x="120" y="40" width="40" height="40"></rect>
                <rect id="Rectangle-5" fill="#00BCB4" x="0" y="80" width="40" height="40"></rect>
                <rect id="Rectangle-5" fill="#77C6AA" x="40" y="80" width="40" height="40"></rect>
                <rect id="Rectangle-5" fill="#C0DCB3" x="80" y="80" width="40" height="40"></rect>
                <rect id="Rectangle-5" fill="#FAF3B9" x="120" y="80" width="40" height="40"></rect>
            </g>
            <g id="set" transform="translate(800.000000, 120.000000)">
                <rect id="Rectangle-5" fill="#2A4FA0" x="0" y="0" width="40" height="40"></rect>
                <rect id="Rectangle-5" fill="#6F4D9E" x="40" y="0" width="40" height="40"></rect>
                <rect id="Rectangle-5" fill="#C65BA1" x="80" y="0" width="40" height="40"></rect>
                <rect id="Rectangle-5" fill="#ED6DA7" x="120" y="0" width="40" height="40"></rect>
                <rect id="Rectangle-5" fill="#0085B6" x="0" y="40" width="40" height="40"></rect>
                <rect id="Rectangle-5" fill="#8283B3" x="40" y="40" width="40" height="40"></rect>
                <rect id="Rectangle-5" fill="#C4A2BC" x="80" y="40" width="40" height="40"></rect>
                <rect id="Rectangle-5" fill="#F4A0B5" x="120" y="40" width="40" height="40"></rect>
                <rect id="Rectangle-5" fill="#00BCB4" x="0" y="80" width="40" height="40"></rect>
                <rect id="Rectangle-5" fill="#77C6AA" x="40" y="80" width="40" height="40"></rect>
                <rect id="Rectangle-5" fill="#C0DCB3" x="80" y="80" width="40" height="40"></rect>
                <rect id="Rectangle-5" fill="#FAF3B9" x="120" y="80" width="40" height="40"></rect>
            </g>
            <g id="set" transform="translate(0.000000, 240.000000)">
                <rect id="Rectangle-5" fill="#2A4FA0" x="0" y="0" width="40" height="40"></rect>
                <rect id="Rectangle-5" fill="#6F4D9E" x="40" y="0" width="40" height="40"></rect>
                <rect id="Rectangle-5" fill="#C65BA1" x="80" y="0" width="40" height="40"></rect>
                <rect id="Rectangle-5" fill="#ED6DA7" x="120" y="0" width="40" height="40"></rect>
                <rect id="Rectangle-5" fill="#0085B6" x="0" y="40" width="40" height="40"></rect>
                <rect id="Rectangle-5" fill="#8283B3" x="40" y="40" width="40" height="40"></rect>
                <rect id="Rectangle-5" fill="#C4A2BC" x="80" y="40" width="40" height="40"></rect>
                <rect id="Rectangle-5" fill="#F4A0B5" x="120" y="40" width="40" height="40"></rect>
                <rect id="Rectangle-5" fill="#00BCB4" x="0" y="80" width="40" height="40"></rect>
                <rect id="Rectangle-5" fill="#77C6AA" x="40" y="80" width="40" height="40"></rect>
                <rect id="Rectangle-5" fill="#C0DCB3" x="80" y="80" width="40" height="40"></rect>
                <rect id="Rectangle-5" fill="#FAF3B9" x="120" y="80" width="40" height="40"></rect>
            </g>
            <g id="set" transform="translate(160.000000, 240.000000)">
                <rect id="Rectangle-5" fill="#2A4FA0" x="0" y="0" width="40" height="40"></rect>
                <rect id="Rectangle-5" fill="#6F4D9E" x="40" y="0" width="40" height="40"></rect>
                <rect id="Rectangle-5" fill="#C65BA1" x="80" y="0" width="40" height="40"></rect>
                <rect id="Rectangle-5" fill="#ED6DA7" x="120" y="0" width="40" height="40"></rect>
                <rect id="Rectangle-5" fill="#0085B6" x="0" y="40" width="40" height="40"></rect>
                <rect id="Rectangle-5" fill="#8283B3" x="40" y="40" width="40" height="40"></rect>
                <rect id="Rectangle-5" fill="#C4A2BC" x="80" y="40" width="40" height="40"></rect>
                <rect id="Rectangle-5" fill="#F4A0B5" x="120" y="40" width="40" height="40"></rect>
                <rect id="Rectangle-5" fill="#00BCB4" x="0" y="80" width="40" height="40"></rect>
                <rect id="Rectangle-5" fill="#77C6AA" x="40" y="80" width="40" height="40"></rect>
                <rect id="Rectangle-5" fill="#C0DCB3" x="80" y="80" width="40" height="40"></rect>
                <rect id="Rectangle-5" fill="#FAF3B9" x="120" y="80" width="40" height="40"></rect>
            </g>
            <g id="set" transform="translate(320.000000, 240.000000)">
                <rect id="Rectangle-5" fill="#2A4FA0" x="0" y="0" width="40" height="40"></rect>
                <rect id="Rectangle-5" fill="#6F4D9E" x="40" y="0" width="40" height="40"></rect>
                <rect id="Rectangle-5" fill="#C65BA1" x="80" y="0" width="40" height="40"></rect>
                <rect id="Rectangle-5" fill="#ED6DA7" x="120" y="0" width="40" height="40"></rect>
                <rect id="Rectangle-5" fill="#0085B6" x="0" y="40" width="40" height="40"></rect>
                <rect id="Rectangle-5" fill="#8283B3" x="40" y="40" width="40" height="40"></rect>
                <rect id="Rectangle-5" fill="#C4A2BC" x="80" y="40" width="40" height="40"></rect>
                <rect id="Rectangle-5" fill="#F4A0B5" x="120" y="40" width="40" height="40"></rect>
                <rect id="Rectangle-5" fill="#00BCB4" x="0" y="80" width="40" height="40"></rect>
                <rect id="Rectangle-5" fill="#77C6AA" x="40" y="80" width="40" height="40"></rect>
                <rect id="Rectangle-5" fill="#C0DCB3" x="80" y="80" width="40" height="40"></rect>
                <rect id="Rectangle-5" fill="#FAF3B9" x="120" y="80" width="40" height="40"></rect>
            </g>
            <g id="set" transform="translate(480.000000, 240.000000)">
                <rect id="Rectangle-5" fill="#2A4FA0" x="0" y="0" width="40" height="40"></rect>
                <rect id="Rectangle-5" fill="#6F4D9E" x="40" y="0" width="40" height="40"></rect>
                <rect id="Rectangle-5" fill="#C65BA1" x="80" y="0" width="40" height="40"></rect>
                <rect id="Rectangle-5" fill="#ED6DA7" x="120" y="0" width="40" height="40"></rect>
                <rect id="Rectangle-5" fill="#0085B6" x="0" y="40" width="40" height="40"></rect>
                <rect id="Rectangle-5" fill="#8283B3" x="40" y="40" width="40" height="40"></rect>
                <rect id="Rectangle-5" fill="#C4A2BC" x="80" y="40" width="40" height="40"></rect>
                <rect id="Rectangle-5" fill="#F4A0B5" x="120" y="40" width="40" height="40"></rect>
                <rect id="Rectangle-5" fill="#00BCB4" x="0" y="80" width="40" height="40"></rect>
                <rect id="Rectangle-5" fill="#77C6AA" x="40" y="80" width="40" height="40"></rect>
                <rect id="Rectangle-5" fill="#C0DCB3" x="80" y="80" width="40" height="40"></rect>
                <rect id="Rectangle-5" fill="#FAF3B9" x="120" y="80" width="40" height="40"></rect>
            </g>
            <g id="set" transform="translate(640.000000, 240.000000)">
                <rect id="Rectangle-5" fill="#2A4FA0" x="0" y="0" width="40" height="40"></rect>
                <rect id="Rectangle-5" fill="#6F4D9E" x="40" y="0" width="40" height="40"></rect>
                <rect id="Rectangle-5" fill="#C65BA1" x="80" y="0" width="40" height="40"></rect>
                <rect id="Rectangle-5" fill="#ED6DA7" x="120" y="0" width="40" height="40"></rect>
                <rect id="Rectangle-5" fill="#0085B6" x="0" y="40" width="40" height="40"></rect>
                <rect id="Rectangle-5" fill="#8283B3" x="40" y="40" width="40" height="40"></rect>
                <rect id="Rectangle-5" fill="#C4A2BC" x="80" y="40" width="40" height="40"></rect>
                <rect id="Rectangle-5" fill="#F4A0B5" x="120" y="40" width="40" height="40"></rect>
                <rect id="Rectangle-5" fill="#00BCB4" x="0" y="80" width="40" height="40"></rect>
                <rect id="Rectangle-5" fill="#77C6AA" x="40" y="80" width="40" height="40"></rect>
                <rect id="Rectangle-5" fill="#C0DCB3" x="80" y="80" width="40" height="40"></rect>
                <rect id="Rectangle-5" fill="#FAF3B9" x="120" y="80" width="40" height="40"></rect>
            </g>
            <g id="set" transform="translate(800.000000, 240.000000)">
                <rect id="Rectangle-5" fill="#2A4FA0" x="0" y="0" width="40" height="40"></rect>
                <rect id="Rectangle-5" fill="#6F4D9E" x="40" y="0" width="40" height="40"></rect>
                <rect id="Rectangle-5" fill="#C65BA1" x="80" y="0" width="40" height="40"></rect>
                <rect id="Rectangle-5" fill="#ED6DA7" x="120" y="0" width="40" height="40"></rect>
                <rect id="Rectangle-5" fill="#0085B6" x="0" y="40" width="40" height="40"></rect>
                <rect id="Rectangle-5" fill="#8283B3" x="40" y="40" width="40" height="40"></rect>
                <rect id="Rectangle-5" fill="#C4A2BC" x="80" y="40" width="40" height="40"></rect>
                <rect id="Rectangle-5" fill="#F4A0B5" x="120" y="40" width="40" height="40"></rect>
                <rect id="Rectangle-5" fill="#00BCB4" x="0" y="80" width="40" height="40"></rect>
                <rect id="Rectangle-5" fill="#77C6AA" x="40" y="80" width="40" height="40"></rect>
                <rect id="Rectangle-5" fill="#C0DCB3" x="80" y="80" width="40" height="40"></rect>
                <rect id="Rectangle-5" fill="#FAF3B9" x="120" y="80" width="40" height="40"></rect>
            </g>
            <g id="set" transform="translate(0.000000, 360.000000)">
                <rect id="Rectangle-5" fill="#2A4FA0" x="0" y="0" width="40" height="40"></rect>
                <rect id="Rectangle-5" fill="#6F4D9E" x="40" y="0" width="40" height="40"></rect>
                <rect id="Rectangle-5" fill="#C65BA1" x="80" y="0" width="40" height="40"></rect>
                <rect id="Rectangle-5" fill="#ED6DA7" x="120" y="0" width="40" height="40"></rect>
                <rect id="Rectangle-5" fill="#0085B6" x="0" y="40" width="40" height="40"></rect>
                <rect id="Rectangle-5" fill="#8283B3" x="40" y="40" width="40" height="40"></rect>
                <rect id="Rectangle-5" fill="#C4A2BC" x="80" y="40" width="40" height="40"></rect>
                <rect id="Rectangle-5" fill="#F4A0B5" x="120" y="40" width="40" height="40"></rect>
                <rect id="Rectangle-5" fill="#00BCB4" x="0" y="80" width="40" height="40"></rect>
                <rect id="Rectangle-5" fill="#77C6AA" x="40" y="80" width="40" height="40"></rect>
                <rect id="Rectangle-5" fill="#C0DCB3" x="80" y="80" width="40" height="40"></rect>
                <rect id="Rectangle-5" fill="#FAF3B9" x="120" y="80" width="40" height="40"></rect>
            </g>
            <g id="set" transform="translate(160.000000, 360.000000)">
                <rect id="Rectangle-5" fill="#2A4FA0" x="0" y="0" width="40" height="40"></rect>
                <rect id="Rectangle-5" fill="#6F4D9E" x="40" y="0" width="40" height="40"></rect>
                <rect id="Rectangle-5" fill="#C65BA1" x="80" y="0" width="40" height="40"></rect>
                <rect id="Rectangle-5" fill="#ED6DA7" x="120" y="0" width="40" height="40"></rect>
                <rect id="Rectangle-5" fill="#0085B6" x="0" y="40" width="40" height="40"></rect>
                <rect id="Rectangle-5" fill="#8283B3" x="40" y="40" width="40" height="40"></rect>
                <rect id="Rectangle-5" fill="#C4A2BC" x="80" y="40" width="40" height="40"></rect>
                <rect id="Rectangle-5" fill="#F4A0B5" x="120" y="40" width="40" height="40"></rect>
                <rect id="Rectangle-5" fill="#00BCB4" x="0" y="80" width="40" height="40"></rect>
                <rect id="Rectangle-5" fill="#77C6AA" x="40" y="80" width="40" height="40"></rect>
                <rect id="Rectangle-5" fill="#C0DCB3" x="80" y="80" width="40" height="40"></rect>
                <rect id="Rectangle-5" fill="#FAF3B9" x="120" y="80" width="40" height="40"></rect>
            </g>
            <g id="set" transform="translate(320.000000, 360.000000)">
                <rect id="Rectangle-5" fill="#2A4FA0" x="0" y="0" width="40" height="40"></rect>
                <rect id="Rectangle-5" fill="#6F4D9E" x="40" y="0" width="40" height="40"></rect>
                <rect id="Rectangle-5" fill="#C65BA1" x="80" y="0" width="40" height="40"></rect>
                <rect id="Rectangle-5" fill="#ED6DA7" x="120" y="0" width="40" height="40"></rect>
                <rect id="Rectangle-5" fill="#0085B6" x="0" y="40" width="40" height="40"></rect>
                <rect id="Rectangle-5" fill="#8283B3" x="40" y="40" width="40" height="40"></rect>
                <rect id="Rectangle-5" fill="#C4A2BC" x="80" y="40" width="40" height="40"></rect>
                <rect id="Rectangle-5" fill="#F4A0B5" x="120" y="40" width="40" height="40"></rect>
                <rect id="Rectangle-5" fill="#00BCB4" x="0" y="80" width="40" height="40"></rect>
                <rect id="Rectangle-5" fill="#77C6AA" x="40" y="80" width="40" height="40"></rect>
                <rect id="Rectangle-5" fill="#C0DCB3" x="80" y="80" width="40" height="40"></rect>
                <rect id="Rectangle-5" fill="#FAF3B9" x="120" y="80" width="40" height="40"></rect>
            </g>
            <g id="set" transform="translate(480.000000, 360.000000)">
                <rect id="Rectangle-5" fill="#2A4FA0" x="0" y="0" width="40" height="40"></rect>
                <rect id="Rectangle-5" fill="#6F4D9E" x="40" y="0" width="40" height="40"></rect>
                <rect id="Rectangle-5" fill="#C65BA1" x="80" y="0" width="40" height="40"></rect>
                <rect id="Rectangle-5" fill="#ED6DA7" x="120" y="0" width="40" height="40"></rect>
                <rect id="Rectangle-5" fill="#0085B6" x="0" y="40" width="40" height="40"></rect>
                <rect id="Rectangle-5" fill="#8283B3" x="40" y="40" width="40" height="40"></rect>
                <rect id="Rectangle-5" fill="#C4A2BC" x="80" y="40" width="40" height="40"></rect>
                <rect id="Rectangle-5" fill="#F4A0B5" x="120" y="40" width="40" height="40"></rect>
                <rect id="Rectangle-5" fill="#00BCB4" x="0" y="80" width="40" height="40"></rect>
                <rect id="Rectangle-5" fill="#77C6AA" x="40" y="80" width="40" height="40"></rect>
                <rect id="Rectangle-5" fill="#C0DCB3" x="80" y="80" width="40" height="40"></rect>
                <rect id="Rectangle-5" fill="#FAF3B9" x="120" y="80" width="40" height="40"></rect>
            </g>
            <g id="set" transform="translate(640.000000, 360.000000)">
                <rect id="Rectangle-5" fill="#2A4FA0" x="0" y="0" width="40" height="40"></rect>
                <rect id="Rectangle-5" fill="#6F4D9E" x="40" y="0" width="40" height="40"></rect>
                <rect id="Rectangle-5" fill="#C65BA1" x="80" y="0" width="40" height="40"></rect>
                <rect id="Rectangle-5" fill="#ED6DA7" x="120" y="0" width="40" height="40"></rect>
                <rect id="Rectangle-5" fill="#0085B6" x="0" y="40" width="40" height="40"></rect>
                <rect id="Rectangle-5" fill="#8283B3" x="40" y="40" width="40" height="40"></rect>
                <rect id="Rectangle-5" fill="#C4A2BC" x="80" y="40" width="40" height="40"></rect>
                <rect id="Rectangle-5" fill="#F4A0B5" x="120" y="40" width="40" height="40"></rect>
                <rect id="Rectangle-5" fill="#00BCB4" x="0" y="80" width="40" height="40"></rect>
                <rect id="Rectangle-5" fill="#77C6AA" x="40" y="80" width="40" height="40"></rect>
                <rect id="Rectangle-5" fill="#C0DCB3" x="80" y="80" width="40" height="40"></rect>
                <rect id="Rectangle-5" fill="#FAF3B9" x="120" y="80" width="40" height="40"></rect>
            </g>
            <g id="set" transform="translate(800.000000, 360.000000)">
                <rect id="Rectangle-5" fill="#2A4FA0" x="0" y="0" width="40" height="40"></rect>
                <rect id="Rectangle-5" fill="#6F4D9E" x="40" y="0" width="40" height="40"></rect>
                <rect id="Rectangle-5" fill="#C65BA1" x="80" y="0" width="40" height="40"></rect>
                <rect id="Rectangle-5" fill="#ED6DA7" x="120" y="0" width="40" height="40"></rect>
                <rect id="Rectangle-5" fill="#0085B6" x="0" y="40" width="40" height="40"></rect>
                <rect id="Rectangle-5" fill="#8283B3" x="40" y="40" width="40" height="40"></rect>
                <rect id="Rectangle-5" fill="#C4A2BC" x="80" y="40" width="40" height="40"></rect>
                <rect id="Rectangle-5" fill="#F4A0B5" x="120" y="40" width="40" height="40"></rect>
                <rect id="Rectangle-5" fill="#00BCB4" x="0" y="80" width="40" height="40"></rect>
                <rect id="Rectangle-5" fill="#77C6AA" x="40" y="80" width="40" height="40"></rect>
                <rect id="Rectangle-5" fill="#C0DCB3" x="80" y="80" width="40" height="40"></rect>
                <rect id="Rectangle-5" fill="#FAF3B9" x="120" y="80" width="40" height="40"></rect>
            </g>
        </g>
    </g>
</svg>