<?xml version="1.0" encoding="UTF-8"?>
<svg width="50px" height="50px" viewBox="0 0 50 50" version="1.1" xmlns="http://www.w3.org/2000/svg" xmlns:xlink="http://www.w3.org/1999/xlink">
    <!-- Generator: Sketch 40.3 (33839) - http://www.bohemiancoding.com/sketch -->
    <title>022-background</title>
    <desc>Created with Sketch.</desc>
    <defs></defs>
    <g id="001" stroke="none" stroke-width="1" fill="none" fill-rule="evenodd">
        <g id="022-background" fill="#D6C8BF">
            <g id="Fill-841" transform="translate(13.000000, 13.000000)">
                <path d="M21.978132,4.48862532 C21.314132,3.82462532 20.458132,3.44262532 19.489132,3.47062532 C19.498132,2.54562532 19.139132,1.64862532 18.472132,0.982625322 C17.163132,-0.326374678 14.876132,-0.328374678 13.566132,0.981625322 C12.230132,2.31762532 12.261132,4.67162532 13.771132,6.08862532 L6.08513196,13.7756253 C5.31713196,12.9876253 4.40113196,12.6316253 3.45413196,12.6316253 C2.52813196,12.6316253 1.66613196,12.9826253 1.02913196,13.6216253 C0.373131956,14.2766253 0.00813195585,15.1406253 0.000131955846,16.0556253 C-0.00786804415,16.9766253 0.348131956,17.8436253 1.00213196,18.4986253 C1.65813196,19.1556253 2.51713196,19.5056253 3.47213196,19.5006253 C3.46213196,20.4226253 3.81813196,21.3146253 4.47913196,21.9756253 C5.14113196,22.6376253 6.02313196,23.0026253 6.96313196,23.0026253 C7.88913196,23.0026253 8.75613196,22.6456253 9.40413196,21.9976253 C10.059132,21.3426253 10.424132,20.4766253 10.431132,19.5596253 C10.437132,18.6636253 10.100132,17.8176253 9.47813196,17.1686253 L17.165132,9.48162532 C18.475132,10.7376253 20.694132,10.7016253 21.990132,9.40462532 C23.342132,8.05362532 23.337132,5.84762532 21.978132,4.48862532"></path>
            </g>
        </g>
    </g>
</svg>