<?xml version="1.0" encoding="UTF-8"?>
<svg width="3000px" height="2000px" viewBox="0 0 3000 2000" version="1.1" xmlns="http://www.w3.org/2000/svg" xmlns:xlink="http://www.w3.org/1999/xlink">
    <!-- Generator: Sketch 40.3 (33839) - http://www.bohemiancoding.com/sketch -->
    <title>028-background</title>
    <desc>Created with Sketch.</desc>
    <defs>
        <linearGradient x1="50%" y1="0%" x2="50%" y2="66.028466%" id="linearGradient-1">
            <stop stop-color="#F8FCFF" offset="0%"></stop>
            <stop stop-color="#EEF7FF" offset="100%"></stop>
        </linearGradient>
    </defs>
    <g id="001" stroke="none" stroke-width="1" fill="none" fill-rule="evenodd">
        <g id="028-background">
            <path d="M-7.95807864e-13,-147 L3000,-147 L3575.61189,936.22125 C3575.61189,936.22125 2792.75647,341.83869 2210.7405,341.83869 C1628.72452,341.83869 1635.82868,721.545349 901.133833,594.045913 C166.438981,466.546476 -619.197379,909.64278 -619.197379,909.64278 L-7.95807864e-13,-147 Z" id="sky" fill="url(#linearGradient-1)"></path>
            <g id="birds" transform="translate(316.000000, 65.000000)" fill="#FFFFFF">
                <path d="M35.3198406,69.9438113 C38.8448032,67.4662766 70.3198406,45.2619009 70.3198406,42.3326271 C70.3198406,39.3517596 37.7262882,57.3484329 35.1599203,58.7700844 C32.5935524,57.3484329 0,39.3517596 0,42.3326271 C0,45.2619009 31.4750374,67.4662766 35,69.9438113 L35,70.168324 C35,70.168324 35.0547436,70.1299899 35.1599203,70.0561507 C35.265097,70.1299899 35.3198406,70.168324 35.3198406,70.168324 L35.3198406,69.9438113 Z" id="bird"></path>
                <path d="M204.319841,292.943811 C207.844803,290.466277 239.319841,268.261901 239.319841,265.332627 C239.319841,262.35176 206.726288,280.348433 204.15992,281.770084 C201.593552,280.348433 169,262.35176 169,265.332627 C169,268.261901 200.475037,290.466277 204,292.943811 L204,293.168324 C204,293.168324 204.054744,293.12999 204.15992,293.056151 C204.265097,293.12999 204.319841,293.168324 204.319841,293.168324 L204.319841,292.943811 Z" id="bird"></path>
                <path d="M847.319841,328.943811 C850.844803,326.466277 882.319841,304.261901 882.319841,301.332627 C882.319841,298.35176 849.726288,316.348433 847.15992,317.770084 C844.593552,316.348433 812,298.35176 812,301.332627 C812,304.261901 843.475037,326.466277 847,328.943811 L847,329.168324 C847,329.168324 847.054744,329.12999 847.15992,329.056151 C847.265097,329.12999 847.319841,329.168324 847.319841,329.168324 L847.319841,328.943811 Z" id="bird"></path>
                <path d="M1162.31984,125.943811 C1165.8448,123.466277 1197.31984,101.261901 1197.31984,98.3326271 C1197.31984,95.3517596 1164.72629,113.348433 1162.15992,114.770084 C1159.59355,113.348433 1127,95.3517596 1127,98.3326271 C1127,101.261901 1158.47504,123.466277 1162,125.943811 L1162,126.168324 C1162,126.168324 1162.05474,126.12999 1162.15992,126.056151 C1162.2651,126.12999 1162.31984,126.168324 1162.31984,126.168324 L1162.31984,125.943811 Z" id="bird"></path>
                <path d="M1162.31984,125.943811 C1165.8448,123.466277 1197.31984,101.261901 1197.31984,98.3326271 C1197.31984,95.3517596 1164.72629,113.348433 1162.15992,114.770084 C1159.59355,113.348433 1127,95.3517596 1127,98.3326271 C1127,101.261901 1158.47504,123.466277 1162,125.943811 L1162,126.168324 C1162,126.168324 1162.05474,126.12999 1162.15992,126.056151 C1162.2651,126.12999 1162.31984,126.168324 1162.31984,126.168324 L1162.31984,125.943811 Z" id="bird"></path>
                <path d="M1289.31984,278.943811 C1292.8448,276.466277 1324.31984,254.261901 1324.31984,251.332627 C1324.31984,248.35176 1291.72629,266.348433 1289.15992,267.770084 C1286.59355,266.348433 1254,248.35176 1254,251.332627 C1254,254.261901 1285.47504,276.466277 1289,278.943811 L1289,279.168324 C1289,279.168324 1289.05474,279.12999 1289.15992,279.056151 C1289.2651,279.12999 1289.31984,279.168324 1289.31984,279.168324 L1289.31984,278.943811 Z" id="bird"></path>
                <path d="M1289.31984,278.943811 C1292.8448,276.466277 1324.31984,254.261901 1324.31984,251.332627 C1324.31984,248.35176 1291.72629,266.348433 1289.15992,267.770084 C1286.59355,266.348433 1254,248.35176 1254,251.332627 C1254,254.261901 1285.47504,276.466277 1289,278.943811 L1289,279.168324 C1289,279.168324 1289.05474,279.12999 1289.15992,279.056151 C1289.2651,279.12999 1289.31984,279.168324 1289.31984,279.168324 L1289.31984,278.943811 Z" id="bird"></path>
                <path d="M1289.31984,278.943811 C1292.8448,276.466277 1324.31984,254.261901 1324.31984,251.332627 C1324.31984,248.35176 1291.72629,266.348433 1289.15992,267.770084 C1286.59355,266.348433 1254,248.35176 1254,251.332627 C1254,254.261901 1285.47504,276.466277 1289,278.943811 L1289,279.168324 C1289,279.168324 1289.05474,279.12999 1289.15992,279.056151 C1289.2651,279.12999 1289.31984,279.168324 1289.31984,279.168324 L1289.31984,278.943811 Z" id="bird"></path>
                <path d="M1289.31984,278.943811 C1292.8448,276.466277 1324.31984,254.261901 1324.31984,251.332627 C1324.31984,248.35176 1291.72629,266.348433 1289.15992,267.770084 C1286.59355,266.348433 1254,248.35176 1254,251.332627 C1254,254.261901 1285.47504,276.466277 1289,278.943811 L1289,279.168324 C1289,279.168324 1289.05474,279.12999 1289.15992,279.056151 C1289.2651,279.12999 1289.31984,279.168324 1289.31984,279.168324 L1289.31984,278.943811 Z" id="bird"></path>
                <path d="M1412.31984,193.943811 C1415.8448,191.466277 1447.31984,169.261901 1447.31984,166.332627 C1447.31984,163.35176 1414.72629,181.348433 1412.15992,182.770084 C1409.59355,181.348433 1377,163.35176 1377,166.332627 C1377,169.261901 1408.47504,191.466277 1412,193.943811 L1412,194.168324 C1412,194.168324 1412.05474,194.12999 1412.15992,194.056151 C1412.2651,194.12999 1412.31984,194.168324 1412.31984,194.168324 L1412.31984,193.943811 Z" id="bird"></path>
                <path d="M1412.31984,193.943811 C1415.8448,191.466277 1447.31984,169.261901 1447.31984,166.332627 C1447.31984,163.35176 1414.72629,181.348433 1412.15992,182.770084 C1409.59355,181.348433 1377,163.35176 1377,166.332627 C1377,169.261901 1408.47504,191.466277 1412,193.943811 L1412,194.168324 C1412,194.168324 1412.05474,194.12999 1412.15992,194.056151 C1412.2651,194.12999 1412.31984,194.168324 1412.31984,194.168324 L1412.31984,193.943811 Z" id="bird"></path>
                <path d="M1412.31984,193.943811 C1415.8448,191.466277 1447.31984,169.261901 1447.31984,166.332627 C1447.31984,163.35176 1414.72629,181.348433 1412.15992,182.770084 C1409.59355,181.348433 1377,163.35176 1377,166.332627 C1377,169.261901 1408.47504,191.466277 1412,193.943811 L1412,194.168324 C1412,194.168324 1412.05474,194.12999 1412.15992,194.056151 C1412.2651,194.12999 1412.31984,194.168324 1412.31984,194.168324 L1412.31984,193.943811 Z" id="bird"></path>
                <path d="M1412.31984,193.943811 C1415.8448,191.466277 1447.31984,169.261901 1447.31984,166.332627 C1447.31984,163.35176 1414.72629,181.348433 1412.15992,182.770084 C1409.59355,181.348433 1377,163.35176 1377,166.332627 C1377,169.261901 1408.47504,191.466277 1412,193.943811 L1412,194.168324 C1412,194.168324 1412.05474,194.12999 1412.15992,194.056151 C1412.2651,194.12999 1412.31984,194.168324 1412.31984,194.168324 L1412.31984,193.943811 Z" id="bird"></path>
                <path d="M1684.31984,41.9438113 C1687.8448,39.4662766 1719.31984,17.2619009 1719.31984,14.3326271 C1719.31984,11.3517596 1686.72629,29.3484329 1684.15992,30.7700844 C1681.59355,29.3484329 1649,11.3517596 1649,14.3326271 C1649,17.2619009 1680.47504,39.4662766 1684,41.9438113 L1684,42.168324 C1684,42.168324 1684.05474,42.1299899 1684.15992,42.0561507 C1684.2651,42.1299899 1684.31984,42.168324 1684.31984,42.168324 L1684.31984,41.9438113 Z" id="bird"></path>
                <path d="M1684.31984,41.9438113 C1687.8448,39.4662766 1719.31984,17.2619009 1719.31984,14.3326271 C1719.31984,11.3517596 1686.72629,29.3484329 1684.15992,30.7700844 C1681.59355,29.3484329 1649,11.3517596 1649,14.3326271 C1649,17.2619009 1680.47504,39.4662766 1684,41.9438113 L1684,42.168324 C1684,42.168324 1684.05474,42.1299899 1684.15992,42.0561507 C1684.2651,42.1299899 1684.31984,42.168324 1684.31984,42.168324 L1684.31984,41.9438113 Z" id="bird"></path>
                <path d="M1684.31984,41.9438113 C1687.8448,39.4662766 1719.31984,17.2619009 1719.31984,14.3326271 C1719.31984,11.3517596 1686.72629,29.3484329 1684.15992,30.7700844 C1681.59355,29.3484329 1649,11.3517596 1649,14.3326271 C1649,17.2619009 1680.47504,39.4662766 1684,41.9438113 L1684,42.168324 C1684,42.168324 1684.05474,42.1299899 1684.15992,42.0561507 C1684.2651,42.1299899 1684.31984,42.168324 1684.31984,42.168324 L1684.31984,41.9438113 Z" id="bird"></path>
                <path d="M1684.31984,41.9438113 C1687.8448,39.4662766 1719.31984,17.2619009 1719.31984,14.3326271 C1719.31984,11.3517596 1686.72629,29.3484329 1684.15992,30.7700844 C1681.59355,29.3484329 1649,11.3517596 1649,14.3326271 C1649,17.2619009 1680.47504,39.4662766 1684,41.9438113 L1684,42.168324 C1684,42.168324 1684.05474,42.1299899 1684.15992,42.0561507 C1684.2651,42.1299899 1684.31984,42.168324 1684.31984,42.168324 L1684.31984,41.9438113 Z" id="bird"></path>
                <path d="M1980.31984,235.943811 C1983.8448,233.466277 2015.31984,211.261901 2015.31984,208.332627 C2015.31984,205.35176 1982.72629,223.348433 1980.15992,224.770084 C1977.59355,223.348433 1945,205.35176 1945,208.332627 C1945,211.261901 1976.47504,233.466277 1980,235.943811 L1980,236.168324 C1980,236.168324 1980.05474,236.12999 1980.15992,236.056151 C1980.2651,236.12999 1980.31984,236.168324 1980.31984,236.168324 L1980.31984,235.943811 Z" id="bird"></path>
                <path d="M1980.31984,235.943811 C1983.8448,233.466277 2015.31984,211.261901 2015.31984,208.332627 C2015.31984,205.35176 1982.72629,223.348433 1980.15992,224.770084 C1977.59355,223.348433 1945,205.35176 1945,208.332627 C1945,211.261901 1976.47504,233.466277 1980,235.943811 L1980,236.168324 C1980,236.168324 1980.05474,236.12999 1980.15992,236.056151 C1980.2651,236.12999 1980.31984,236.168324 1980.31984,236.168324 L1980.31984,235.943811 Z" id="bird"></path>
                <path d="M1980.31984,235.943811 C1983.8448,233.466277 2015.31984,211.261901 2015.31984,208.332627 C2015.31984,205.35176 1982.72629,223.348433 1980.15992,224.770084 C1977.59355,223.348433 1945,205.35176 1945,208.332627 C1945,211.261901 1976.47504,233.466277 1980,235.943811 L1980,236.168324 C1980,236.168324 1980.05474,236.12999 1980.15992,236.056151 C1980.2651,236.12999 1980.31984,236.168324 1980.31984,236.168324 L1980.31984,235.943811 Z" id="bird"></path>
                <path d="M1980.31984,235.943811 C1983.8448,233.466277 2015.31984,211.261901 2015.31984,208.332627 C2015.31984,205.35176 1982.72629,223.348433 1980.15992,224.770084 C1977.59355,223.348433 1945,205.35176 1945,208.332627 C1945,211.261901 1976.47504,233.466277 1980,235.943811 L1980,236.168324 C1980,236.168324 1980.05474,236.12999 1980.15992,236.056151 C1980.2651,236.12999 1980.31984,236.168324 1980.31984,236.168324 L1980.31984,235.943811 Z" id="bird"></path>
                <path d="M2377.31984,263.943811 C2380.8448,261.466277 2412.31984,239.261901 2412.31984,236.332627 C2412.31984,233.35176 2379.72629,251.348433 2377.15992,252.770084 C2374.59355,251.348433 2342,233.35176 2342,236.332627 C2342,239.261901 2373.47504,261.466277 2377,263.943811 L2377,264.168324 C2377,264.168324 2377.05474,264.12999 2377.15992,264.056151 C2377.2651,264.12999 2377.31984,264.168324 2377.31984,264.168324 L2377.31984,263.943811 Z" id="bird"></path>
                <path d="M2377.31984,263.943811 C2380.8448,261.466277 2412.31984,239.261901 2412.31984,236.332627 C2412.31984,233.35176 2379.72629,251.348433 2377.15992,252.770084 C2374.59355,251.348433 2342,233.35176 2342,236.332627 C2342,239.261901 2373.47504,261.466277 2377,263.943811 L2377,264.168324 C2377,264.168324 2377.05474,264.12999 2377.15992,264.056151 C2377.2651,264.12999 2377.31984,264.168324 2377.31984,264.168324 L2377.31984,263.943811 Z" id="bird"></path>
                <path d="M2377.31984,263.943811 C2380.8448,261.466277 2412.31984,239.261901 2412.31984,236.332627 C2412.31984,233.35176 2379.72629,251.348433 2377.15992,252.770084 C2374.59355,251.348433 2342,233.35176 2342,236.332627 C2342,239.261901 2373.47504,261.466277 2377,263.943811 L2377,264.168324 C2377,264.168324 2377.05474,264.12999 2377.15992,264.056151 C2377.2651,264.12999 2377.31984,264.168324 2377.31984,264.168324 L2377.31984,263.943811 Z" id="bird"></path>
                <path d="M2377.31984,263.943811 C2380.8448,261.466277 2412.31984,239.261901 2412.31984,236.332627 C2412.31984,233.35176 2379.72629,251.348433 2377.15992,252.770084 C2374.59355,251.348433 2342,233.35176 2342,236.332627 C2342,239.261901 2373.47504,261.466277 2377,263.943811 L2377,264.168324 C2377,264.168324 2377.05474,264.12999 2377.15992,264.056151 C2377.2651,264.12999 2377.31984,264.168324 2377.31984,264.168324 L2377.31984,263.943811 Z" id="bird"></path>
                <path d="M2543.31984,165.943811 C2546.8448,163.466277 2578.31984,141.261901 2578.31984,138.332627 C2578.31984,135.35176 2545.72629,153.348433 2543.15992,154.770084 C2540.59355,153.348433 2508,135.35176 2508,138.332627 C2508,141.261901 2539.47504,163.466277 2543,165.943811 L2543,166.168324 C2543,166.168324 2543.05474,166.12999 2543.15992,166.056151 C2543.2651,166.12999 2543.31984,166.168324 2543.31984,166.168324 L2543.31984,165.943811 Z" id="bird"></path>
                <path d="M2543.31984,165.943811 C2546.8448,163.466277 2578.31984,141.261901 2578.31984,138.332627 C2578.31984,135.35176 2545.72629,153.348433 2543.15992,154.770084 C2540.59355,153.348433 2508,135.35176 2508,138.332627 C2508,141.261901 2539.47504,163.466277 2543,165.943811 L2543,166.168324 C2543,166.168324 2543.05474,166.12999 2543.15992,166.056151 C2543.2651,166.12999 2543.31984,166.168324 2543.31984,166.168324 L2543.31984,165.943811 Z" id="bird"></path>
                <path d="M2543.31984,165.943811 C2546.8448,163.466277 2578.31984,141.261901 2578.31984,138.332627 C2578.31984,135.35176 2545.72629,153.348433 2543.15992,154.770084 C2540.59355,153.348433 2508,135.35176 2508,138.332627 C2508,141.261901 2539.47504,163.466277 2543,165.943811 L2543,166.168324 C2543,166.168324 2543.05474,166.12999 2543.15992,166.056151 C2543.2651,166.12999 2543.31984,166.168324 2543.31984,166.168324 L2543.31984,165.943811 Z" id="bird"></path>
                <path d="M2543.31984,165.943811 C2546.8448,163.466277 2578.31984,141.261901 2578.31984,138.332627 C2578.31984,135.35176 2545.72629,153.348433 2543.15992,154.770084 C2540.59355,153.348433 2508,135.35176 2508,138.332627 C2508,141.261901 2539.47504,163.466277 2543,165.943811 L2543,166.168324 C2543,166.168324 2543.05474,166.12999 2543.15992,166.056151 C2543.2651,166.12999 2543.31984,166.168324 2543.31984,166.168324 L2543.31984,165.943811 Z" id="bird"></path>
                <path d="M2241.31984,27.9438113 C2244.8448,25.4662766 2276.31984,3.2619009 2276.31984,0.332627142 C2276.31984,-2.64824043 2243.72629,15.3484329 2241.15992,16.7700844 C2238.59355,15.3484329 2206,-2.64824043 2206,0.332627142 C2206,3.2619009 2237.47504,25.4662766 2241,27.9438113 L2241,28.168324 C2241,28.168324 2241.05474,28.1299899 2241.15992,28.0561507 C2241.2651,28.1299899 2241.31984,28.168324 2241.31984,28.168324 L2241.31984,27.9438113 Z" id="bird"></path>
                <path d="M2241.31984,27.9438113 C2244.8448,25.4662766 2276.31984,3.2619009 2276.31984,0.332627142 C2276.31984,-2.64824043 2243.72629,15.3484329 2241.15992,16.7700844 C2238.59355,15.3484329 2206,-2.64824043 2206,0.332627142 C2206,3.2619009 2237.47504,25.4662766 2241,27.9438113 L2241,28.168324 C2241,28.168324 2241.05474,28.1299899 2241.15992,28.0561507 C2241.2651,28.1299899 2241.31984,28.168324 2241.31984,28.168324 L2241.31984,27.9438113 Z" id="bird"></path>
                <path d="M2241.31984,27.9438113 C2244.8448,25.4662766 2276.31984,3.2619009 2276.31984,0.332627142 C2276.31984,-2.64824043 2243.72629,15.3484329 2241.15992,16.7700844 C2238.59355,15.3484329 2206,-2.64824043 2206,0.332627142 C2206,3.2619009 2237.47504,25.4662766 2241,27.9438113 L2241,28.168324 C2241,28.168324 2241.05474,28.1299899 2241.15992,28.0561507 C2241.2651,28.1299899 2241.31984,28.168324 2241.31984,28.168324 L2241.31984,27.9438113 Z" id="bird"></path>
                <path d="M2241.31984,27.9438113 C2244.8448,25.4662766 2276.31984,3.2619009 2276.31984,0.332627142 C2276.31984,-2.64824043 2243.72629,15.3484329 2241.15992,16.7700844 C2238.59355,15.3484329 2206,-2.64824043 2206,0.332627142 C2206,3.2619009 2237.47504,25.4662766 2241,27.9438113 L2241,28.168324 C2241,28.168324 2241.05474,28.1299899 2241.15992,28.0561507 C2241.2651,28.1299899 2241.31984,28.168324 2241.31984,28.168324 L2241.31984,27.9438113 Z" id="bird"></path>
                <path d="M377.319841,207.943811 C380.844803,205.466277 412.319841,183.261901 412.319841,180.332627 C412.319841,177.35176 379.726288,195.348433 377.15992,196.770084 C374.593552,195.348433 342,177.35176 342,180.332627 C342,183.261901 373.475037,205.466277 377,207.943811 L377,208.168324 C377,208.168324 377.054744,208.12999 377.15992,208.056151 C377.265097,208.12999 377.319841,208.168324 377.319841,208.168324 L377.319841,207.943811 Z" id="bird"></path>
                <path d="M377.319841,207.943811 C380.844803,205.466277 412.319841,183.261901 412.319841,180.332627 C412.319841,177.35176 379.726288,195.348433 377.15992,196.770084 C374.593552,195.348433 342,177.35176 342,180.332627 C342,183.261901 373.475037,205.466277 377,207.943811 L377,208.168324 C377,208.168324 377.054744,208.12999 377.15992,208.056151 C377.265097,208.12999 377.319841,208.168324 377.319841,208.168324 L377.319841,207.943811 Z" id="bird"></path>
                <path d="M534.319841,386.943811 C537.844803,384.466277 569.319841,362.261901 569.319841,359.332627 C569.319841,356.35176 536.726288,374.348433 534.15992,375.770084 C531.593552,374.348433 499,356.35176 499,359.332627 C499,362.261901 530.475037,384.466277 534,386.943811 L534,387.168324 C534,387.168324 534.054744,387.12999 534.15992,387.056151 C534.265097,387.12999 534.319841,387.168324 534.319841,387.168324 L534.319841,386.943811 Z" id="bird"></path>
                <path d="M534.319841,386.943811 C537.844803,384.466277 569.319841,362.261901 569.319841,359.332627 C569.319841,356.35176 536.726288,374.348433 534.15992,375.770084 C531.593552,374.348433 499,356.35176 499,359.332627 C499,362.261901 530.475037,384.466277 534,386.943811 L534,387.168324 C534,387.168324 534.054744,387.12999 534.15992,387.056151 C534.265097,387.12999 534.319841,387.168324 534.319841,387.168324 L534.319841,386.943811 Z" id="bird"></path>
                <path d="M777.319841,97.9438113 C780.844803,95.4662766 812.319841,73.2619009 812.319841,70.3326271 C812.319841,67.3517596 779.726288,85.3484329 777.15992,86.7700844 C774.593552,85.3484329 742,67.3517596 742,70.3326271 C742,73.2619009 773.475037,95.4662766 777,97.9438113 L777,98.168324 C777,98.168324 777.054744,98.1299899 777.15992,98.0561507 C777.265097,98.1299899 777.319841,98.168324 777.319841,98.168324 L777.319841,97.9438113 Z" id="bird"></path>
                <path d="M777.319841,97.9438113 C780.844803,95.4662766 812.319841,73.2619009 812.319841,70.3326271 C812.319841,67.3517596 779.726288,85.3484329 777.15992,86.7700844 C774.593552,85.3484329 742,67.3517596 742,70.3326271 C742,73.2619009 773.475037,95.4662766 777,97.9438113 L777,98.168324 C777,98.168324 777.054744,98.1299899 777.15992,98.0561507 C777.265097,98.1299899 777.319841,98.168324 777.319841,98.168324 L777.319841,97.9438113 Z" id="bird"></path>
            </g>
        </g>
    </g>
</svg>